<svg width="139" height="218" viewBox="0 0 139 218" fill="none" xmlns="http://www.w3.org/2000/svg">
<rect width="139" height="218" rx="10" fill="white"/>
<path d="M22.048 123.352C22.048 123.784 21.936 124.168 21.712 124.504C21.4827 124.84 21.1573 125.104 20.736 125.296C20.3093 125.488 19.7973 125.584 19.2 125.584C18.6027 125.584 18.0933 125.488 17.672 125.296C17.2453 125.104 16.92 124.84 16.696 124.504C16.4667 124.168 16.352 123.784 16.352 123.352C16.352 122.92 16.4667 122.536 16.696 122.2C16.92 121.864 17.2453 121.6 17.672 121.408C18.0933 121.211 18.6027 121.112 19.2 121.112C19.7973 121.112 20.3093 121.211 20.736 121.408C21.1573 121.6 21.4827 121.864 21.712 122.2C21.936 122.536 22.048 122.92 22.048 123.352ZM21.52 123.352C21.52 123.021 21.432 122.733 21.256 122.488C21.0747 122.243 20.8133 122.051 20.472 121.912C20.1253 121.773 19.7013 121.704 19.2 121.704C18.6987 121.704 18.2773 121.773 17.936 121.912C17.5893 122.051 17.328 122.243 17.152 122.488C16.9707 122.733 16.88 123.021 16.88 123.352C16.88 123.672 16.9707 123.957 17.152 124.208C17.328 124.459 17.5893 124.653 17.936 124.792C18.2773 124.931 18.6987 125 19.2 125C19.7013 125 20.1253 124.931 20.472 124.792C20.8133 124.653 21.0747 124.459 21.256 124.208C21.432 123.957 21.52 123.672 21.52 123.352ZM22 119.311H16.64L16.912 119.055V120.631H16.4V118.735H22V119.311ZM22 117.796L16.4 115.236V114.652L22 112.092V112.716L16.744 115.068V114.828L22 117.18V117.796ZM20.504 116.788L20.024 116.612V113.356L20.504 113.18V116.788ZM22 111.166H16.4V108.75C16.4 108.126 16.5253 107.643 16.776 107.302C17.0267 106.955 17.3813 106.782 17.84 106.782C18.144 106.782 18.4 106.854 18.608 106.998C18.816 107.137 18.9733 107.329 19.08 107.574C19.1867 107.814 19.24 108.078 19.24 108.366L19.048 108.23C19.048 107.873 19.104 107.566 19.216 107.31C19.3227 107.049 19.4853 106.846 19.704 106.702C19.9173 106.558 20.184 106.486 20.504 106.486C20.9787 106.486 21.3467 106.662 21.608 107.014C21.8693 107.361 22 107.886 22 108.59V111.166ZM21.512 110.574V108.598C21.512 108.107 21.4293 107.731 21.264 107.47C21.0933 107.209 20.824 107.078 20.456 107.078C20.0933 107.078 19.8293 107.209 19.664 107.47C19.4933 107.731 19.408 108.107 19.408 108.598V110.638H18.92V108.79C18.92 108.342 18.8347 107.995 18.664 107.75C18.4933 107.499 18.24 107.374 17.904 107.374C17.5627 107.374 17.3093 107.499 17.144 107.75C16.9733 107.995 16.888 108.342 16.888 108.79V110.574H21.512ZM22.048 101.305C22.048 101.737 21.936 102.121 21.712 102.457C21.4827 102.793 21.1573 103.057 20.736 103.249C20.3093 103.441 19.7973 103.537 19.2 103.537C18.6027 103.537 18.0933 103.441 17.672 103.249C17.2453 103.057 16.92 102.793 16.696 102.457C16.4667 102.121 16.352 101.737 16.352 101.305C16.352 100.873 16.4667 100.489 16.696 100.153C16.92 99.8171 17.2453 99.5531 17.672 99.3611C18.0933 99.1638 18.6027 99.0651 19.2 99.0651C19.7973 99.0651 20.3093 99.1638 20.736 99.3611C21.1573 99.5531 21.4827 99.8171 21.712 100.153C21.936 100.489 22.048 100.873 22.048 101.305ZM21.52 101.305C21.52 100.974 21.432 100.686 21.256 100.441C21.0747 100.196 20.8133 100.004 20.472 99.8651C20.1253 99.7265 19.7013 99.6571 19.2 99.6571C18.6987 99.6571 18.2773 99.7265 17.936 99.8651C17.5893 100.004 17.328 100.196 17.152 100.441C16.9707 100.686 16.88 100.974 16.88 101.305C16.88 101.625 16.9707 101.91 17.152 102.161C17.328 102.412 17.5893 102.606 17.936 102.745C18.2773 102.884 18.6987 102.953 19.2 102.953C19.7013 102.953 20.1253 102.884 20.472 102.745C20.8133 102.606 21.0747 102.412 21.256 102.161C21.432 101.91 21.52 101.625 21.52 101.305ZM22 98.3442H21.592L19.312 96.0162C19.104 95.8029 18.9227 95.6429 18.768 95.5362C18.608 95.4296 18.4587 95.3576 18.32 95.3202C18.1813 95.2829 18.0507 95.2642 17.928 95.2642C17.6027 95.2642 17.3467 95.3762 17.16 95.6002C16.9733 95.8189 16.88 96.1442 16.88 96.5762C16.88 96.9069 16.9307 97.2002 17.032 97.4562C17.1333 97.7069 17.2907 97.9229 17.504 98.1042L17.152 98.5122C16.896 98.2936 16.6987 98.0136 16.56 97.6722C16.4213 97.3309 16.352 96.9496 16.352 96.5282C16.352 96.1496 16.4133 95.8216 16.536 95.5442C16.6533 95.2669 16.8267 95.0536 17.056 94.9042C17.2853 94.7496 17.5547 94.6722 17.864 94.6722C18.0453 94.6722 18.224 94.6989 18.4 94.7522C18.576 94.8002 18.7627 94.8909 18.96 95.0242C19.152 95.1522 19.3707 95.3416 19.616 95.5922L21.712 97.7282L21.488 97.8882V94.4162H22V98.3442ZM22.048 90.7654C22.048 91.1867 21.9787 91.576 21.84 91.9334C21.696 92.2907 21.496 92.6 21.24 92.8614C20.984 93.1227 20.6827 93.328 20.336 93.4774C19.9893 93.6214 19.6107 93.6934 19.2 93.6934C18.7893 93.6934 18.4107 93.6214 18.064 93.4774C17.7173 93.328 17.416 93.1227 17.16 92.8614C16.904 92.5947 16.7067 92.2827 16.568 91.9254C16.424 91.568 16.352 91.1787 16.352 90.7574C16.352 90.352 16.4213 89.9707 16.56 89.6134C16.6933 89.256 16.896 88.9547 17.168 88.7094L17.544 89.0854C17.3093 89.3147 17.1413 89.568 17.04 89.8454C16.9333 90.1227 16.88 90.4214 16.88 90.7414C16.88 91.0774 16.9387 91.3894 17.056 91.6774C17.168 91.9654 17.3307 92.216 17.544 92.4294C17.752 92.6427 17.9973 92.8107 18.28 92.9334C18.5573 93.0507 18.864 93.1094 19.2 93.1094C19.536 93.1094 19.8453 93.0507 20.128 92.9334C20.4053 92.8107 20.6507 92.6427 20.864 92.4294C21.072 92.216 21.2347 91.9654 21.352 91.6774C21.464 91.3894 21.52 91.0774 21.52 90.7414C21.52 90.4214 21.4667 90.1227 21.36 89.8454C21.2533 89.568 21.0827 89.3147 20.848 89.0854L21.224 88.7094C21.496 88.9547 21.7013 89.256 21.84 89.6134C21.9787 89.9707 22.048 90.3547 22.048 90.7654ZM22 87.4474H16.4V85.1674C16.4 84.57 16.52 84.0474 16.76 83.5994C16.9947 83.146 17.3227 82.794 17.744 82.5434C18.1653 82.2927 18.6507 82.1674 19.2 82.1674C19.7493 82.1674 20.2347 82.2927 20.656 82.5434C21.0773 82.794 21.408 83.146 21.648 83.5994C21.8827 84.0474 22 84.57 22 85.1674V87.4474ZM21.488 86.8554V85.1994C21.488 84.7034 21.392 84.274 21.2 83.9114C21.0027 83.5434 20.7333 83.258 20.392 83.0554C20.0453 82.8527 19.648 82.7514 19.2 82.7514C18.7467 82.7514 18.3493 82.8527 18.008 83.0554C17.6667 83.258 17.4 83.5434 17.208 83.9114C17.0107 84.274 16.912 84.7034 16.912 85.1994V86.8554H21.488Z" fill="black"/>
<rect x="50" y="9" width="40" height="12" rx="6" fill="#D9D9D9"/>
</svg>
