<svg width="139" height="218" viewBox="0 0 139 218" fill="none" xmlns="http://www.w3.org/2000/svg">
<rect width="139" height="218" rx="10" fill="black"/>
<path d="M28.96 208.04C28.592 208.04 28.2613 207.957 27.968 207.792C27.6747 207.621 27.4427 207.376 27.272 207.056C27.1013 206.736 27.016 206.349 27.016 205.896C27.016 205.437 27.1013 205.051 27.272 204.736C27.448 204.416 27.6827 204.173 27.976 204.008C28.2693 203.843 28.5973 203.76 28.96 203.76C29.36 203.76 29.7173 203.851 30.032 204.032C30.352 204.208 30.6027 204.456 30.784 204.776C30.9653 205.096 31.056 205.469 31.056 205.896C31.056 206.317 30.9653 206.691 30.784 207.016C30.6027 207.336 30.352 207.587 30.032 207.768C29.7173 207.949 29.36 208.04 28.96 208.04ZM26.792 208V202.064H27.36V205.04L27.28 205.888L27.336 206.736V208H26.792ZM28.92 207.536C29.2187 207.536 29.4853 207.469 29.72 207.336C29.9547 207.197 30.1413 207.005 30.28 206.76C30.4187 206.509 30.488 206.221 30.488 205.896C30.488 205.565 30.4187 205.277 30.28 205.032C30.1413 204.787 29.9547 204.597 29.72 204.464C29.4853 204.325 29.2187 204.256 28.92 204.256C28.6213 204.256 28.352 204.325 28.112 204.464C27.8773 204.597 27.6907 204.787 27.552 205.032C27.4187 205.277 27.352 205.565 27.352 205.896C27.352 206.221 27.4187 206.509 27.552 206.76C27.6907 207.005 27.8773 207.197 28.112 207.336C28.352 207.469 28.6213 207.536 28.92 207.536ZM34.8224 208V207.072L34.7984 206.92V205.368C34.7984 205.011 34.6971 204.736 34.4944 204.544C34.2971 204.352 34.0011 204.256 33.6064 204.256C33.3344 204.256 33.0758 204.301 32.8304 204.392C32.5851 204.483 32.3771 204.603 32.2064 204.752L31.9504 204.328C32.1638 204.147 32.4198 204.008 32.7184 203.912C33.0171 203.811 33.3318 203.76 33.6624 203.76C34.2064 203.76 34.6251 203.896 34.9184 204.168C35.2171 204.435 35.3664 204.843 35.3664 205.392V208H34.8224ZM33.3744 208.04C33.0598 208.04 32.7851 207.989 32.5504 207.888C32.3211 207.781 32.1451 207.637 32.0224 207.456C31.8998 207.269 31.8384 207.056 31.8384 206.816C31.8384 206.597 31.8891 206.4 31.9904 206.224C32.0971 206.043 32.2678 205.899 32.5024 205.792C32.7424 205.68 33.0624 205.624 33.4624 205.624H34.9104V206.048H33.4784C33.0731 206.048 32.7904 206.12 32.6304 206.264C32.4758 206.408 32.3984 206.587 32.3984 206.8C32.3984 207.04 32.4918 207.232 32.6784 207.376C32.8651 207.52 33.1264 207.592 33.4624 207.592C33.7824 207.592 34.0571 207.52 34.2864 207.376C34.5211 207.227 34.6918 207.013 34.7984 206.736L34.9264 207.128C34.8198 207.405 34.6331 207.627 34.3664 207.792C34.1051 207.957 33.7744 208.04 33.3744 208.04ZM38.5812 208.04C38.1812 208.04 37.8212 207.949 37.5012 207.768C37.1865 207.587 36.9385 207.336 36.7572 207.016C36.5759 206.691 36.4852 206.317 36.4852 205.896C36.4852 205.469 36.5759 205.096 36.7572 204.776C36.9385 204.456 37.1865 204.208 37.5012 204.032C37.8212 203.851 38.1812 203.76 38.5812 203.76C38.9492 203.76 39.2772 203.843 39.5652 204.008C39.8585 204.173 40.0905 204.416 40.2612 204.736C40.4372 205.051 40.5252 205.437 40.5252 205.896C40.5252 206.349 40.4399 206.736 40.2692 207.056C40.0985 207.376 39.8665 207.621 39.5732 207.792C39.2852 207.957 38.9545 208.04 38.5812 208.04ZM38.6212 207.536C38.9199 207.536 39.1865 207.469 39.4212 207.336C39.6612 207.197 39.8479 207.005 39.9812 206.76C40.1199 206.509 40.1892 206.221 40.1892 205.896C40.1892 205.565 40.1199 205.277 39.9812 205.032C39.8479 204.787 39.6612 204.597 39.4212 204.464C39.1865 204.325 38.9199 204.256 38.6212 204.256C38.3279 204.256 38.0639 204.325 37.8292 204.464C37.5945 204.597 37.4079 204.787 37.2692 205.032C37.1305 205.277 37.0612 205.565 37.0612 205.896C37.0612 206.221 37.1305 206.509 37.2692 206.76C37.4079 207.005 37.5945 207.197 37.8292 207.336C38.0639 207.469 38.3279 207.536 38.6212 207.536ZM40.2052 208V206.736L40.2612 205.888L40.1812 205.04V202.064H40.7492V208H40.2052ZM44.1231 209.592C43.7391 209.592 43.3711 209.536 43.0191 209.424C42.6671 209.312 42.3817 209.152 42.1631 208.944L42.4511 208.512C42.6484 208.688 42.8911 208.827 43.1791 208.928C43.4724 209.035 43.7817 209.088 44.1071 209.088C44.6404 209.088 45.0324 208.963 45.2831 208.712C45.5337 208.467 45.6591 208.083 45.6591 207.56V206.512L45.7391 205.792L45.6831 205.072V203.8H46.2271V207.488C46.2271 208.213 46.0484 208.744 45.6911 209.08C45.3391 209.421 44.8164 209.592 44.1231 209.592ZM44.0191 207.84C43.6191 207.84 43.2591 207.755 42.9391 207.584C42.6191 207.408 42.3657 207.165 42.1791 206.856C41.9977 206.547 41.9071 206.192 41.9071 205.792C41.9071 205.392 41.9977 205.04 42.1791 204.736C42.3657 204.427 42.6191 204.187 42.9391 204.016C43.2591 203.845 43.6191 203.76 44.0191 203.76C44.3924 203.76 44.7284 203.837 45.0271 203.992C45.3257 204.147 45.5631 204.376 45.7391 204.68C45.9151 204.984 46.0031 205.355 46.0031 205.792C46.0031 206.229 45.9151 206.6 45.7391 206.904C45.5631 207.208 45.3257 207.44 45.0271 207.6C44.7284 207.76 44.3924 207.84 44.0191 207.84ZM44.0751 207.336C44.3844 207.336 44.6591 207.272 44.8991 207.144C45.1391 207.011 45.3284 206.829 45.4671 206.6C45.6057 206.365 45.6751 206.096 45.6751 205.792C45.6751 205.488 45.6057 205.221 45.4671 204.992C45.3284 204.763 45.1391 204.584 44.8991 204.456C44.6591 204.323 44.3844 204.256 44.0751 204.256C43.7711 204.256 43.4964 204.323 43.2511 204.456C43.0111 204.584 42.8217 204.763 42.6831 204.992C42.5497 205.221 42.4831 205.488 42.4831 205.792C42.4831 206.096 42.5497 206.365 42.6831 206.6C42.8217 206.829 43.0111 207.011 43.2511 207.144C43.4964 207.272 43.7711 207.336 44.0751 207.336ZM49.5916 208.04C49.1543 208.04 48.7703 207.949 48.4396 207.768C48.109 207.581 47.8503 207.328 47.6636 207.008C47.477 206.683 47.3836 206.312 47.3836 205.896C47.3836 205.48 47.4716 205.112 47.6476 204.792C47.829 204.472 48.0743 204.221 48.3836 204.04C48.6983 203.853 49.0503 203.76 49.4396 203.76C49.8343 203.76 50.1836 203.851 50.4876 204.032C50.797 204.208 51.0396 204.459 51.2156 204.784C51.3916 205.104 51.4796 205.475 51.4796 205.896C51.4796 205.923 51.477 205.952 51.4716 205.984C51.4716 206.011 51.4716 206.04 51.4716 206.072H47.8156V205.648H51.1676L50.9436 205.816C50.9436 205.512 50.877 205.243 50.7436 205.008C50.6156 204.768 50.4396 204.581 50.2156 204.448C49.9916 204.315 49.733 204.248 49.4396 204.248C49.1516 204.248 48.893 204.315 48.6636 204.448C48.4343 204.581 48.2556 204.768 48.1276 205.008C47.9996 205.248 47.9356 205.523 47.9356 205.832V205.92C47.9356 206.24 48.005 206.523 48.1436 206.768C48.2876 207.008 48.485 207.197 48.7356 207.336C48.9916 207.469 49.2823 207.536 49.6076 207.536C49.8636 207.536 50.101 207.491 50.3196 207.4C50.5436 207.309 50.7356 207.171 50.8956 206.984L51.2156 207.352C51.029 207.576 50.7943 207.747 50.5116 207.864C50.2343 207.981 49.9276 208.04 49.5916 208.04ZM52.6358 208V203.8H53.1798V204.944L53.1238 204.744C53.2411 204.424 53.4384 204.181 53.7158 204.016C53.9931 203.845 54.3371 203.76 54.7478 203.76V204.312C54.7264 204.312 54.7051 204.312 54.6838 204.312C54.6624 204.307 54.6411 204.304 54.6198 204.304C54.1771 204.304 53.8304 204.44 53.5798 204.712C53.3291 204.979 53.2038 205.36 53.2038 205.856V208H52.6358ZM55.8246 208.04C55.7072 208.04 55.6059 207.997 55.5206 207.912C55.4406 207.827 55.4006 207.723 55.4006 207.6C55.4006 207.472 55.4406 207.368 55.5206 207.288C55.6059 207.208 55.7072 207.168 55.8246 207.168C55.9419 207.168 56.0406 207.208 56.1206 207.288C56.2059 207.368 56.2486 207.472 56.2486 207.6C56.2486 207.723 56.2059 207.827 56.1206 207.912C56.0406 207.997 55.9419 208.04 55.8246 208.04ZM59.1307 208.04C58.6934 208.04 58.3094 207.949 57.9787 207.768C57.648 207.581 57.3894 207.328 57.2027 207.008C57.016 206.683 56.9227 206.312 56.9227 205.896C56.9227 205.48 57.0107 205.112 57.1867 204.792C57.368 204.472 57.6134 204.221 57.9227 204.04C58.2374 203.853 58.5894 203.76 58.9787 203.76C59.3734 203.76 59.7227 203.851 60.0267 204.032C60.336 204.208 60.5787 204.459 60.7547 204.784C60.9307 205.104 61.0187 205.475 61.0187 205.896C61.0187 205.923 61.016 205.952 61.0107 205.984C61.0107 206.011 61.0107 206.04 61.0107 206.072H57.3547V205.648H60.7067L60.4827 205.816C60.4827 205.512 60.416 205.243 60.2827 205.008C60.1547 204.768 59.9787 204.581 59.7547 204.448C59.5307 204.315 59.272 204.248 58.9787 204.248C58.6907 204.248 58.432 204.315 58.2027 204.448C57.9734 204.581 57.7947 204.768 57.6667 205.008C57.5387 205.248 57.4747 205.523 57.4747 205.832V205.92C57.4747 206.24 57.544 206.523 57.6827 206.768C57.8267 207.008 58.024 207.197 58.2747 207.336C58.5307 207.469 58.8214 207.536 59.1467 207.536C59.4027 207.536 59.64 207.491 59.8587 207.4C60.0827 207.309 60.2747 207.171 60.4347 206.984L60.7547 207.352C60.568 207.576 60.3334 207.747 60.0507 207.864C59.7734 207.981 59.4667 208.04 59.1307 208.04ZM61.4176 208L63.1936 205.696L63.1856 205.976L61.4976 203.8H62.1376L63.5216 205.6L63.2816 205.592L64.6656 203.8H65.2896L63.5856 206L63.5936 205.696L65.3856 208H64.7376L63.2736 206.08L63.4976 206.112L62.0576 208H61.4176ZM68.8849 208V207.072L68.8609 206.92V205.368C68.8609 205.011 68.7596 204.736 68.5569 204.544C68.3596 204.352 68.0636 204.256 67.6689 204.256C67.3969 204.256 67.1383 204.301 66.8929 204.392C66.6476 204.483 66.4396 204.603 66.2689 204.752L66.0129 204.328C66.2263 204.147 66.4823 204.008 66.7809 203.912C67.0796 203.811 67.3943 203.76 67.7249 203.76C68.2689 203.76 68.6876 203.896 68.9809 204.168C69.2796 204.435 69.4289 204.843 69.4289 205.392V208H68.8849ZM67.4369 208.04C67.1223 208.04 66.8476 207.989 66.6129 207.888C66.3836 207.781 66.2076 207.637 66.0849 207.456C65.9623 207.269 65.9009 207.056 65.9009 206.816C65.9009 206.597 65.9516 206.4 66.0529 206.224C66.1596 206.043 66.3303 205.899 66.5649 205.792C66.8049 205.68 67.1249 205.624 67.5249 205.624H68.9729V206.048H67.5409C67.1356 206.048 66.8529 206.12 66.6929 206.264C66.5383 206.408 66.4609 206.587 66.4609 206.8C66.4609 207.04 66.5543 207.232 66.7409 207.376C66.9276 207.52 67.1889 207.592 67.5249 207.592C67.8449 207.592 68.1196 207.52 68.3489 207.376C68.5836 207.227 68.7543 207.013 68.8609 206.736L68.9889 207.128C68.8823 207.405 68.6956 207.627 68.4289 207.792C68.1676 207.957 67.8369 208.04 67.4369 208.04ZM76.2197 203.76C76.561 203.76 76.857 203.827 77.1077 203.96C77.3637 204.088 77.561 204.285 77.6997 204.552C77.8437 204.819 77.9157 205.155 77.9157 205.56V208H77.3477V205.616C77.3477 205.173 77.241 204.84 77.0277 204.616C76.8197 204.387 76.5237 204.272 76.1397 204.272C75.8517 204.272 75.601 204.333 75.3877 204.456C75.1797 204.573 75.017 204.747 74.8997 204.976C74.7877 205.2 74.7317 205.472 74.7317 205.792V208H74.1637V205.616C74.1637 205.173 74.057 204.84 73.8437 204.616C73.6304 204.387 73.3317 204.272 72.9477 204.272C72.665 204.272 72.417 204.333 72.2037 204.456C71.9904 204.573 71.825 204.747 71.7077 204.976C71.5957 205.2 71.5397 205.472 71.5397 205.792V208H70.9717V203.8H71.5157V204.936L71.4277 204.736C71.5557 204.432 71.761 204.195 72.0437 204.024C72.3317 203.848 72.6704 203.76 73.0597 203.76C73.4704 203.76 73.8197 203.864 74.1077 204.072C74.3957 204.275 74.5824 204.581 74.6677 204.992L74.4437 204.904C74.5664 204.563 74.7824 204.288 75.0917 204.08C75.4064 203.867 75.7824 203.76 76.2197 203.76ZM81.6241 208.04C81.2614 208.04 80.9334 207.957 80.6401 207.792C80.3467 207.621 80.1121 207.379 79.9361 207.064C79.7654 206.744 79.6801 206.355 79.6801 205.896C79.6801 205.437 79.7654 205.051 79.9361 204.736C80.1067 204.416 80.3387 204.173 80.6321 204.008C80.9254 203.843 81.2561 203.76 81.6241 203.76C82.0241 203.76 82.3814 203.851 82.6961 204.032C83.0161 204.208 83.2667 204.459 83.4481 204.784C83.6294 205.104 83.7201 205.475 83.7201 205.896C83.7201 206.323 83.6294 206.696 83.4481 207.016C83.2667 207.336 83.0161 207.587 82.6961 207.768C82.3814 207.949 82.0241 208.04 81.6241 208.04ZM79.4561 209.552V203.8H80.0001V205.064L79.9441 205.904L80.0241 206.752V209.552H79.4561ZM81.5841 207.536C81.8827 207.536 82.1494 207.469 82.3841 207.336C82.6187 207.197 82.8054 207.005 82.9441 206.76C83.0827 206.509 83.1521 206.221 83.1521 205.896C83.1521 205.571 83.0827 205.285 82.9441 205.04C82.8054 204.795 82.6187 204.603 82.3841 204.464C82.1494 204.325 81.8827 204.256 81.5841 204.256C81.2854 204.256 81.0161 204.325 80.7761 204.464C80.5414 204.603 80.3547 204.795 80.2161 205.04C80.0827 205.285 80.0161 205.571 80.0161 205.896C80.0161 206.221 80.0827 206.509 80.2161 206.76C80.3547 207.005 80.5414 207.197 80.7761 207.336C81.0161 207.469 81.2854 207.536 81.5841 207.536ZM84.8779 208V202.064H85.4459V208H84.8779ZM88.8104 208.04C88.373 208.04 87.989 207.949 87.6584 207.768C87.3277 207.581 87.069 207.328 86.8824 207.008C86.6957 206.683 86.6024 206.312 86.6024 205.896C86.6024 205.48 86.6904 205.112 86.8664 204.792C87.0477 204.472 87.293 204.221 87.6024 204.04C87.917 203.853 88.269 203.76 88.6584 203.76C89.053 203.76 89.4024 203.851 89.7064 204.032C90.0157 204.208 90.2584 204.459 90.4344 204.784C90.6104 205.104 90.6984 205.475 90.6984 205.896C90.6984 205.923 90.6957 205.952 90.6904 205.984C90.6904 206.011 90.6904 206.04 90.6904 206.072H87.0344V205.648H90.3864L90.1624 205.816C90.1624 205.512 90.0957 205.243 89.9624 205.008C89.8344 204.768 89.6584 204.581 89.4344 204.448C89.2104 204.315 88.9517 204.248 88.6584 204.248C88.3704 204.248 88.1117 204.315 87.8824 204.448C87.653 204.581 87.4744 204.768 87.3464 205.008C87.2184 205.248 87.1544 205.523 87.1544 205.832V205.92C87.1544 206.24 87.2237 206.523 87.3624 206.768C87.5064 207.008 87.7037 207.197 87.9544 207.336C88.2104 207.469 88.501 207.536 88.8264 207.536C89.0824 207.536 89.3197 207.491 89.5384 207.4C89.7624 207.309 89.9544 207.171 90.1144 206.984L90.4344 207.352C90.2477 207.576 90.013 207.747 89.7304 207.864C89.453 207.981 89.1464 208.04 88.8104 208.04ZM91.9105 208.04C91.7932 208.04 91.6918 207.997 91.6065 207.912C91.5265 207.827 91.4865 207.723 91.4865 207.6C91.4865 207.472 91.5265 207.368 91.6065 207.288C91.6918 207.208 91.7932 207.168 91.9105 207.168C92.0278 207.168 92.1265 207.208 92.2065 207.288C92.2918 207.368 92.3345 207.472 92.3345 207.6C92.3345 207.723 92.2918 207.827 92.2065 207.912C92.1265 207.997 92.0278 208.04 91.9105 208.04ZM95.1766 208.04C94.7606 208.04 94.3873 207.949 94.0566 207.768C93.7313 207.581 93.4753 207.328 93.2886 207.008C93.102 206.683 93.0086 206.312 93.0086 205.896C93.0086 205.475 93.102 205.104 93.2886 204.784C93.4753 204.464 93.7313 204.213 94.0566 204.032C94.3873 203.851 94.7606 203.76 95.1766 203.76C95.534 203.76 95.8566 203.829 96.1446 203.968C96.4326 204.107 96.6593 204.315 96.8246 204.592L96.4006 204.88C96.2566 204.667 96.078 204.509 95.8646 204.408C95.6513 204.307 95.4193 204.256 95.1686 204.256C94.87 204.256 94.6006 204.325 94.3606 204.464C94.1206 204.597 93.9313 204.787 93.7926 205.032C93.654 205.277 93.5846 205.565 93.5846 205.896C93.5846 206.227 93.654 206.515 93.7926 206.76C93.9313 207.005 94.1206 207.197 94.3606 207.336C94.6006 207.469 94.87 207.536 95.1686 207.536C95.4193 207.536 95.6513 207.485 95.8646 207.384C96.078 207.283 96.2566 207.128 96.4006 206.92L96.8246 207.208C96.6593 207.48 96.4326 207.688 96.1446 207.832C95.8566 207.971 95.534 208.04 95.1766 208.04ZM99.5821 208.04C99.1768 208.04 98.8115 207.949 98.4861 207.768C98.1661 207.581 97.9128 207.328 97.7261 207.008C97.5395 206.683 97.4461 206.312 97.4461 205.896C97.4461 205.475 97.5395 205.104 97.7261 204.784C97.9128 204.464 98.1661 204.213 98.4861 204.032C98.8061 203.851 99.1715 203.76 99.5821 203.76C99.9981 203.76 100.366 203.851 100.686 204.032C101.011 204.213 101.265 204.464 101.446 204.784C101.633 205.104 101.726 205.475 101.726 205.896C101.726 206.312 101.633 206.683 101.446 207.008C101.265 207.328 101.011 207.581 100.686 207.768C100.361 207.949 99.9928 208.04 99.5821 208.04ZM99.5821 207.536C99.8861 207.536 100.155 207.469 100.39 207.336C100.625 207.197 100.809 207.005 100.942 206.76C101.081 206.509 101.15 206.221 101.15 205.896C101.15 205.565 101.081 205.277 100.942 205.032C100.809 204.787 100.625 204.597 100.39 204.464C100.155 204.325 99.8888 204.256 99.5901 204.256C99.2915 204.256 99.0248 204.325 98.7901 204.464C98.5555 204.597 98.3688 204.787 98.2301 205.032C98.0915 205.277 98.0221 205.565 98.0221 205.896C98.0221 206.221 98.0915 206.509 98.2301 206.76C98.3688 207.005 98.5555 207.197 98.7901 207.336C99.0248 207.469 99.2888 207.536 99.5821 207.536ZM108.134 203.76C108.475 203.76 108.771 203.827 109.022 203.96C109.278 204.088 109.475 204.285 109.614 204.552C109.758 204.819 109.83 205.155 109.83 205.56V208H109.262V205.616C109.262 205.173 109.155 204.84 108.942 204.616C108.734 204.387 108.438 204.272 108.054 204.272C107.766 204.272 107.515 204.333 107.302 204.456C107.094 204.573 106.931 204.747 106.814 204.976C106.702 205.2 106.646 205.472 106.646 205.792V208H106.078V205.616C106.078 205.173 105.971 204.84 105.758 204.616C105.544 204.387 105.246 204.272 104.862 204.272C104.579 204.272 104.331 204.333 104.118 204.456C103.904 204.573 103.739 204.747 103.622 204.976C103.51 205.2 103.454 205.472 103.454 205.792V208H102.886V203.8H103.43V204.936L103.342 204.736C103.47 204.432 103.675 204.195 103.958 204.024C104.246 203.848 104.584 203.76 104.974 203.76C105.384 203.76 105.734 203.864 106.022 204.072C106.31 204.275 106.496 204.581 106.582 204.992L106.358 204.904C106.48 204.563 106.696 204.288 107.006 204.08C107.32 203.867 107.696 203.76 108.134 203.76Z" fill="white"/>
<path d="M0 10C0 4.47715 4.47715 0 10 0H129C134.523 0 139 4.47715 139 10V193H0V10Z" fill="#A8A8A8"/>
<path d="M96.5 138L120.316 179.25H72.6843L96.5 138Z" fill="#E14E4E"/>
<path d="M62 65.5C62 74.6127 54.6127 82 45.5 82C36.3873 82 29 74.6127 29 65.5C29 56.3873 36.3873 49 45.5 49C54.6127 49 62 56.3873 62 65.5Z" fill="#D5FC81"/>
<rect x="85" y="41" width="24" height="83" fill="#3994E9"/>
<rect x="26" y="104" width="39" height="39" fill="#CE2CE9"/>
<rect x="50" y="9" width="40" height="12" rx="6" fill="#D9D9D9"/>
</svg>
