%TF.GenerationSoftware,KiCad,Pcbnew,7.0.10*%
%TF.CreationDate,2024-02-21T03:28:03-08:00*%
%TF.ProjectId,b1,62312e6b-6963-4616-945f-706362585858,1*%
%TF.SameCoordinates,Original*%
%TF.FileFunction,Legend,Bot*%
%TF.FilePolarity,Positive*%
%FSLAX46Y46*%
G04 Gerber Fmt 4.6, Leading zero omitted, Abs format (unit mm)*
G04 Created by KiCad (PCBNEW 7.0.10) date 2024-02-21 03:28:03*
%MOMM*%
%LPD*%
G01*
G04 APERTURE LIST*
%ADD10C,0.150000*%
%ADD11C,0.120000*%
G04 APERTURE END LIST*
D10*
X192036819Y-65900493D02*
X192751104Y-65900493D01*
X192751104Y-65900493D02*
X192893961Y-65852874D01*
X192893961Y-65852874D02*
X192989200Y-65757636D01*
X192989200Y-65757636D02*
X193036819Y-65614779D01*
X193036819Y-65614779D02*
X193036819Y-65519541D01*
X193036819Y-66852874D02*
X193036819Y-66376684D01*
X193036819Y-66376684D02*
X192036819Y-66376684D01*
X192941580Y-67757636D02*
X192989200Y-67710017D01*
X192989200Y-67710017D02*
X193036819Y-67567160D01*
X193036819Y-67567160D02*
X193036819Y-67471922D01*
X193036819Y-67471922D02*
X192989200Y-67329065D01*
X192989200Y-67329065D02*
X192893961Y-67233827D01*
X192893961Y-67233827D02*
X192798723Y-67186208D01*
X192798723Y-67186208D02*
X192608247Y-67138589D01*
X192608247Y-67138589D02*
X192465390Y-67138589D01*
X192465390Y-67138589D02*
X192274914Y-67186208D01*
X192274914Y-67186208D02*
X192179676Y-67233827D01*
X192179676Y-67233827D02*
X192084438Y-67329065D01*
X192084438Y-67329065D02*
X192036819Y-67471922D01*
X192036819Y-67471922D02*
X192036819Y-67567160D01*
X192036819Y-67567160D02*
X192084438Y-67710017D01*
X192084438Y-67710017D02*
X192132057Y-67757636D01*
X192036819Y-68471922D02*
X192751104Y-68471922D01*
X192751104Y-68471922D02*
X192893961Y-68424303D01*
X192893961Y-68424303D02*
X192989200Y-68329065D01*
X192989200Y-68329065D02*
X193036819Y-68186208D01*
X193036819Y-68186208D02*
X193036819Y-68090970D01*
X193036819Y-69424303D02*
X193036819Y-68948113D01*
X193036819Y-68948113D02*
X192036819Y-68948113D01*
X192941580Y-70329065D02*
X192989200Y-70281446D01*
X192989200Y-70281446D02*
X193036819Y-70138589D01*
X193036819Y-70138589D02*
X193036819Y-70043351D01*
X193036819Y-70043351D02*
X192989200Y-69900494D01*
X192989200Y-69900494D02*
X192893961Y-69805256D01*
X192893961Y-69805256D02*
X192798723Y-69757637D01*
X192798723Y-69757637D02*
X192608247Y-69710018D01*
X192608247Y-69710018D02*
X192465390Y-69710018D01*
X192465390Y-69710018D02*
X192274914Y-69757637D01*
X192274914Y-69757637D02*
X192179676Y-69805256D01*
X192179676Y-69805256D02*
X192084438Y-69900494D01*
X192084438Y-69900494D02*
X192036819Y-70043351D01*
X192036819Y-70043351D02*
X192036819Y-70138589D01*
X192036819Y-70138589D02*
X192084438Y-70281446D01*
X192084438Y-70281446D02*
X192132057Y-70329065D01*
X192036819Y-71043351D02*
X192751104Y-71043351D01*
X192751104Y-71043351D02*
X192893961Y-70995732D01*
X192893961Y-70995732D02*
X192989200Y-70900494D01*
X192989200Y-70900494D02*
X193036819Y-70757637D01*
X193036819Y-70757637D02*
X193036819Y-70662399D01*
X193036819Y-71995732D02*
X193036819Y-71519542D01*
X193036819Y-71519542D02*
X192036819Y-71519542D01*
X192941580Y-72900494D02*
X192989200Y-72852875D01*
X192989200Y-72852875D02*
X193036819Y-72710018D01*
X193036819Y-72710018D02*
X193036819Y-72614780D01*
X193036819Y-72614780D02*
X192989200Y-72471923D01*
X192989200Y-72471923D02*
X192893961Y-72376685D01*
X192893961Y-72376685D02*
X192798723Y-72329066D01*
X192798723Y-72329066D02*
X192608247Y-72281447D01*
X192608247Y-72281447D02*
X192465390Y-72281447D01*
X192465390Y-72281447D02*
X192274914Y-72329066D01*
X192274914Y-72329066D02*
X192179676Y-72376685D01*
X192179676Y-72376685D02*
X192084438Y-72471923D01*
X192084438Y-72471923D02*
X192036819Y-72614780D01*
X192036819Y-72614780D02*
X192036819Y-72710018D01*
X192036819Y-72710018D02*
X192084438Y-72852875D01*
X192084438Y-72852875D02*
X192132057Y-72900494D01*
X192036819Y-73614780D02*
X192751104Y-73614780D01*
X192751104Y-73614780D02*
X192893961Y-73567161D01*
X192893961Y-73567161D02*
X192989200Y-73471923D01*
X192989200Y-73471923D02*
X193036819Y-73329066D01*
X193036819Y-73329066D02*
X193036819Y-73233828D01*
X193036819Y-74567161D02*
X193036819Y-74090971D01*
X193036819Y-74090971D02*
X192036819Y-74090971D01*
X192941580Y-75471923D02*
X192989200Y-75424304D01*
X192989200Y-75424304D02*
X193036819Y-75281447D01*
X193036819Y-75281447D02*
X193036819Y-75186209D01*
X193036819Y-75186209D02*
X192989200Y-75043352D01*
X192989200Y-75043352D02*
X192893961Y-74948114D01*
X192893961Y-74948114D02*
X192798723Y-74900495D01*
X192798723Y-74900495D02*
X192608247Y-74852876D01*
X192608247Y-74852876D02*
X192465390Y-74852876D01*
X192465390Y-74852876D02*
X192274914Y-74900495D01*
X192274914Y-74900495D02*
X192179676Y-74948114D01*
X192179676Y-74948114D02*
X192084438Y-75043352D01*
X192084438Y-75043352D02*
X192036819Y-75186209D01*
X192036819Y-75186209D02*
X192036819Y-75281447D01*
X192036819Y-75281447D02*
X192084438Y-75424304D01*
X192084438Y-75424304D02*
X192132057Y-75471923D01*
X170659541Y-65732819D02*
X170992874Y-65256628D01*
X171230969Y-65732819D02*
X171230969Y-64732819D01*
X171230969Y-64732819D02*
X170850017Y-64732819D01*
X170850017Y-64732819D02*
X170754779Y-64780438D01*
X170754779Y-64780438D02*
X170707160Y-64828057D01*
X170707160Y-64828057D02*
X170659541Y-64923295D01*
X170659541Y-64923295D02*
X170659541Y-65066152D01*
X170659541Y-65066152D02*
X170707160Y-65161390D01*
X170707160Y-65161390D02*
X170754779Y-65209009D01*
X170754779Y-65209009D02*
X170850017Y-65256628D01*
X170850017Y-65256628D02*
X171230969Y-65256628D01*
X169754779Y-64732819D02*
X170230969Y-64732819D01*
X170230969Y-64732819D02*
X170278588Y-65209009D01*
X170278588Y-65209009D02*
X170230969Y-65161390D01*
X170230969Y-65161390D02*
X170135731Y-65113771D01*
X170135731Y-65113771D02*
X169897636Y-65113771D01*
X169897636Y-65113771D02*
X169802398Y-65161390D01*
X169802398Y-65161390D02*
X169754779Y-65209009D01*
X169754779Y-65209009D02*
X169707160Y-65304247D01*
X169707160Y-65304247D02*
X169707160Y-65542342D01*
X169707160Y-65542342D02*
X169754779Y-65637580D01*
X169754779Y-65637580D02*
X169802398Y-65685200D01*
X169802398Y-65685200D02*
X169897636Y-65732819D01*
X169897636Y-65732819D02*
X170135731Y-65732819D01*
X170135731Y-65732819D02*
X170230969Y-65685200D01*
X170230969Y-65685200D02*
X170278588Y-65637580D01*
X170659541Y-61795819D02*
X170992874Y-61319628D01*
X171230969Y-61795819D02*
X171230969Y-60795819D01*
X171230969Y-60795819D02*
X170850017Y-60795819D01*
X170850017Y-60795819D02*
X170754779Y-60843438D01*
X170754779Y-60843438D02*
X170707160Y-60891057D01*
X170707160Y-60891057D02*
X170659541Y-60986295D01*
X170659541Y-60986295D02*
X170659541Y-61129152D01*
X170659541Y-61129152D02*
X170707160Y-61224390D01*
X170707160Y-61224390D02*
X170754779Y-61272009D01*
X170754779Y-61272009D02*
X170850017Y-61319628D01*
X170850017Y-61319628D02*
X171230969Y-61319628D01*
X170326207Y-60795819D02*
X169707160Y-60795819D01*
X169707160Y-60795819D02*
X170040493Y-61176771D01*
X170040493Y-61176771D02*
X169897636Y-61176771D01*
X169897636Y-61176771D02*
X169802398Y-61224390D01*
X169802398Y-61224390D02*
X169754779Y-61272009D01*
X169754779Y-61272009D02*
X169707160Y-61367247D01*
X169707160Y-61367247D02*
X169707160Y-61605342D01*
X169707160Y-61605342D02*
X169754779Y-61700580D01*
X169754779Y-61700580D02*
X169802398Y-61748200D01*
X169802398Y-61748200D02*
X169897636Y-61795819D01*
X169897636Y-61795819D02*
X170183350Y-61795819D01*
X170183350Y-61795819D02*
X170278588Y-61748200D01*
X170278588Y-61748200D02*
X170326207Y-61700580D01*
X107295792Y-132058580D02*
X107343411Y-132106200D01*
X107343411Y-132106200D02*
X107486268Y-132153819D01*
X107486268Y-132153819D02*
X107581506Y-132153819D01*
X107581506Y-132153819D02*
X107724363Y-132106200D01*
X107724363Y-132106200D02*
X107819601Y-132010961D01*
X107819601Y-132010961D02*
X107867220Y-131915723D01*
X107867220Y-131915723D02*
X107914839Y-131725247D01*
X107914839Y-131725247D02*
X107914839Y-131582390D01*
X107914839Y-131582390D02*
X107867220Y-131391914D01*
X107867220Y-131391914D02*
X107819601Y-131296676D01*
X107819601Y-131296676D02*
X107724363Y-131201438D01*
X107724363Y-131201438D02*
X107581506Y-131153819D01*
X107581506Y-131153819D02*
X107486268Y-131153819D01*
X107486268Y-131153819D02*
X107343411Y-131201438D01*
X107343411Y-131201438D02*
X107295792Y-131249057D01*
X106914839Y-131249057D02*
X106867220Y-131201438D01*
X106867220Y-131201438D02*
X106771982Y-131153819D01*
X106771982Y-131153819D02*
X106533887Y-131153819D01*
X106533887Y-131153819D02*
X106438649Y-131201438D01*
X106438649Y-131201438D02*
X106391030Y-131249057D01*
X106391030Y-131249057D02*
X106343411Y-131344295D01*
X106343411Y-131344295D02*
X106343411Y-131439533D01*
X106343411Y-131439533D02*
X106391030Y-131582390D01*
X106391030Y-131582390D02*
X106962458Y-132153819D01*
X106962458Y-132153819D02*
X106343411Y-132153819D01*
X105867220Y-132153819D02*
X105676744Y-132153819D01*
X105676744Y-132153819D02*
X105581506Y-132106200D01*
X105581506Y-132106200D02*
X105533887Y-132058580D01*
X105533887Y-132058580D02*
X105438649Y-131915723D01*
X105438649Y-131915723D02*
X105391030Y-131725247D01*
X105391030Y-131725247D02*
X105391030Y-131344295D01*
X105391030Y-131344295D02*
X105438649Y-131249057D01*
X105438649Y-131249057D02*
X105486268Y-131201438D01*
X105486268Y-131201438D02*
X105581506Y-131153819D01*
X105581506Y-131153819D02*
X105771982Y-131153819D01*
X105771982Y-131153819D02*
X105867220Y-131201438D01*
X105867220Y-131201438D02*
X105914839Y-131249057D01*
X105914839Y-131249057D02*
X105962458Y-131344295D01*
X105962458Y-131344295D02*
X105962458Y-131582390D01*
X105962458Y-131582390D02*
X105914839Y-131677628D01*
X105914839Y-131677628D02*
X105867220Y-131725247D01*
X105867220Y-131725247D02*
X105771982Y-131772866D01*
X105771982Y-131772866D02*
X105581506Y-131772866D01*
X105581506Y-131772866D02*
X105486268Y-131725247D01*
X105486268Y-131725247D02*
X105438649Y-131677628D01*
X105438649Y-131677628D02*
X105391030Y-131582390D01*
X107295792Y-134344580D02*
X107343411Y-134392200D01*
X107343411Y-134392200D02*
X107486268Y-134439819D01*
X107486268Y-134439819D02*
X107581506Y-134439819D01*
X107581506Y-134439819D02*
X107724363Y-134392200D01*
X107724363Y-134392200D02*
X107819601Y-134296961D01*
X107819601Y-134296961D02*
X107867220Y-134201723D01*
X107867220Y-134201723D02*
X107914839Y-134011247D01*
X107914839Y-134011247D02*
X107914839Y-133868390D01*
X107914839Y-133868390D02*
X107867220Y-133677914D01*
X107867220Y-133677914D02*
X107819601Y-133582676D01*
X107819601Y-133582676D02*
X107724363Y-133487438D01*
X107724363Y-133487438D02*
X107581506Y-133439819D01*
X107581506Y-133439819D02*
X107486268Y-133439819D01*
X107486268Y-133439819D02*
X107343411Y-133487438D01*
X107343411Y-133487438D02*
X107295792Y-133535057D01*
X106914839Y-133535057D02*
X106867220Y-133487438D01*
X106867220Y-133487438D02*
X106771982Y-133439819D01*
X106771982Y-133439819D02*
X106533887Y-133439819D01*
X106533887Y-133439819D02*
X106438649Y-133487438D01*
X106438649Y-133487438D02*
X106391030Y-133535057D01*
X106391030Y-133535057D02*
X106343411Y-133630295D01*
X106343411Y-133630295D02*
X106343411Y-133725533D01*
X106343411Y-133725533D02*
X106391030Y-133868390D01*
X106391030Y-133868390D02*
X106962458Y-134439819D01*
X106962458Y-134439819D02*
X106343411Y-134439819D01*
X105771982Y-133868390D02*
X105867220Y-133820771D01*
X105867220Y-133820771D02*
X105914839Y-133773152D01*
X105914839Y-133773152D02*
X105962458Y-133677914D01*
X105962458Y-133677914D02*
X105962458Y-133630295D01*
X105962458Y-133630295D02*
X105914839Y-133535057D01*
X105914839Y-133535057D02*
X105867220Y-133487438D01*
X105867220Y-133487438D02*
X105771982Y-133439819D01*
X105771982Y-133439819D02*
X105581506Y-133439819D01*
X105581506Y-133439819D02*
X105486268Y-133487438D01*
X105486268Y-133487438D02*
X105438649Y-133535057D01*
X105438649Y-133535057D02*
X105391030Y-133630295D01*
X105391030Y-133630295D02*
X105391030Y-133677914D01*
X105391030Y-133677914D02*
X105438649Y-133773152D01*
X105438649Y-133773152D02*
X105486268Y-133820771D01*
X105486268Y-133820771D02*
X105581506Y-133868390D01*
X105581506Y-133868390D02*
X105771982Y-133868390D01*
X105771982Y-133868390D02*
X105867220Y-133916009D01*
X105867220Y-133916009D02*
X105914839Y-133963628D01*
X105914839Y-133963628D02*
X105962458Y-134058866D01*
X105962458Y-134058866D02*
X105962458Y-134249342D01*
X105962458Y-134249342D02*
X105914839Y-134344580D01*
X105914839Y-134344580D02*
X105867220Y-134392200D01*
X105867220Y-134392200D02*
X105771982Y-134439819D01*
X105771982Y-134439819D02*
X105581506Y-134439819D01*
X105581506Y-134439819D02*
X105486268Y-134392200D01*
X105486268Y-134392200D02*
X105438649Y-134344580D01*
X105438649Y-134344580D02*
X105391030Y-134249342D01*
X105391030Y-134249342D02*
X105391030Y-134058866D01*
X105391030Y-134058866D02*
X105438649Y-133963628D01*
X105438649Y-133963628D02*
X105486268Y-133916009D01*
X105486268Y-133916009D02*
X105581506Y-133868390D01*
D11*
%TO.C,R5*%
X174564064Y-66188000D02*
X173109936Y-66188000D01*
X174564064Y-64368000D02*
X173109936Y-64368000D01*
%TO.C,R3*%
X173109936Y-62251000D02*
X174564064Y-62251000D01*
X173109936Y-60431000D02*
X174564064Y-60431000D01*
%TO.C,C29*%
X103327252Y-132482000D02*
X101904748Y-132482000D01*
X103327252Y-130662000D02*
X101904748Y-130662000D01*
%TO.C,C28*%
X103327252Y-134895000D02*
X101904748Y-134895000D01*
X103327252Y-133075000D02*
X101904748Y-133075000D01*
%TD*%
M02*
