%TF.GenerationSoftware,KiCad,Pcbnew,7.0.10*%
%TF.CreationDate,2024-02-21T03:28:03-08:00*%
%TF.ProjectId,b1,62312e6b-6963-4616-945f-706362585858,1*%
%TF.SameCoordinates,Original*%
%TF.FileFunction,Soldermask,Top*%
%TF.FilePolarity,Negative*%
%FSLAX46Y46*%
G04 Gerber Fmt 4.6, Leading zero omitted, Abs format (unit mm)*
G04 Created by KiCad (PCBNEW 7.0.10) date 2024-02-21 03:28:03*
%MOMM*%
%LPD*%
G01*
G04 APERTURE LIST*
G04 Aperture macros list*
%AMRoundRect*
0 Rectangle with rounded corners*
0 $1 Rounding radius*
0 $2 $3 $4 $5 $6 $7 $8 $9 X,Y pos of 4 corners*
0 Add a 4 corners polygon primitive as box body*
4,1,4,$2,$3,$4,$5,$6,$7,$8,$9,$2,$3,0*
0 Add four circle primitives for the rounded corners*
1,1,$1+$1,$2,$3*
1,1,$1+$1,$4,$5*
1,1,$1+$1,$6,$7*
1,1,$1+$1,$8,$9*
0 Add four rect primitives between the rounded corners*
20,1,$1+$1,$2,$3,$4,$5,0*
20,1,$1+$1,$4,$5,$6,$7,0*
20,1,$1+$1,$6,$7,$8,$9,0*
20,1,$1+$1,$8,$9,$2,$3,0*%
%AMFreePoly0*
4,1,6,1.000000,0.000000,0.500000,-0.750000,-0.500000,-0.750000,-0.500000,0.750000,0.500000,0.750000,1.000000,0.000000,1.000000,0.000000,$1*%
%AMFreePoly1*
4,1,6,0.500000,-0.750000,-0.650000,-0.750000,-0.150000,0.000000,-0.650000,0.750000,0.500000,0.750000,0.500000,-0.750000,0.500000,-0.750000,$1*%
G04 Aperture macros list end*
%ADD10R,2.000000X1.500000*%
%ADD11R,2.000000X3.800000*%
%ADD12R,1.350000X1.350000*%
%ADD13O,1.350000X1.350000*%
%ADD14R,1.500000X2.000000*%
%ADD15C,1.130000*%
%ADD16R,1.130000X1.130000*%
%ADD17O,1.600000X1.600000*%
%ADD18R,1.600000X1.600000*%
%ADD19R,2.500000X1.000000*%
%ADD20R,1.000000X1.800000*%
%ADD21O,1.905000X2.000000*%
%ADD22R,1.905000X2.000000*%
%ADD23O,3.500000X3.500000*%
%ADD24C,2.000000*%
%ADD25R,1.408000X1.408000*%
%ADD26C,1.408000*%
%ADD27C,1.600000*%
%ADD28RoundRect,0.250000X-0.625000X0.400000X-0.625000X-0.400000X0.625000X-0.400000X0.625000X0.400000X0*%
%ADD29RoundRect,0.250000X-0.400000X-0.625000X0.400000X-0.625000X0.400000X0.625000X-0.400000X0.625000X0*%
%ADD30RoundRect,0.150000X0.150000X-0.587500X0.150000X0.587500X-0.150000X0.587500X-0.150000X-0.587500X0*%
%ADD31R,1.700000X1.700000*%
%ADD32O,1.700000X1.700000*%
%ADD33FreePoly0,270.000000*%
%ADD34FreePoly1,270.000000*%
%ADD35FreePoly0,90.000000*%
%ADD36FreePoly1,90.000000*%
%ADD37R,3.000000X3.000000*%
%ADD38C,3.000000*%
%ADD39C,2.200000*%
%ADD40R,1.800000X1.800000*%
%ADD41C,1.800000*%
%ADD42RoundRect,0.250000X-0.650000X0.412500X-0.650000X-0.412500X0.650000X-0.412500X0.650000X0.412500X0*%
%ADD43C,1.200000*%
%ADD44R,1.200000X1.200000*%
%ADD45RoundRect,0.250000X-0.412500X-0.650000X0.412500X-0.650000X0.412500X0.650000X-0.412500X0.650000X0*%
%ADD46R,2.000000X2.000000*%
G04 APERTURE END LIST*
D10*
%TO.C,U2*%
X103988000Y-61170600D03*
X103988000Y-63470600D03*
D11*
X97688000Y-63470600D03*
D10*
X103988000Y-65770600D03*
%TD*%
D12*
%TO.C,U8*%
X135095000Y-134747000D03*
D13*
X133095000Y-134747000D03*
X131095000Y-134747000D03*
X129095000Y-134747000D03*
X127095000Y-134747000D03*
X125095000Y-134747000D03*
X123095000Y-134747000D03*
X121095000Y-134747000D03*
%TD*%
D14*
%TO.C,U7*%
X100188000Y-122810000D03*
X102188000Y-122810000D03*
X104188000Y-122810000D03*
X106188000Y-122810000D03*
X108188000Y-122810000D03*
X110188000Y-122810000D03*
X112188000Y-122810000D03*
X114188000Y-122810000D03*
X114188000Y-138810000D03*
X112188000Y-138810000D03*
X110188000Y-138810000D03*
X108188000Y-138810000D03*
X106188000Y-138810000D03*
X104188000Y-138810000D03*
X102188000Y-138810000D03*
X100188000Y-138810000D03*
%TD*%
D15*
%TO.C,U6*%
X167767000Y-122555000D03*
X167767000Y-120015000D03*
X167767000Y-117475000D03*
X167767000Y-114935000D03*
X167767000Y-112395000D03*
X167767000Y-109855000D03*
X167767000Y-107315000D03*
X167767000Y-104775000D03*
X175707000Y-104775000D03*
X175707000Y-107315000D03*
X175707000Y-109855000D03*
X175707000Y-112395000D03*
X175707000Y-114935000D03*
X175707000Y-117475000D03*
X175707000Y-120015000D03*
D16*
X175707000Y-122555000D03*
%TD*%
%TO.C,U5*%
X113881500Y-92573000D03*
D15*
X113881500Y-90033000D03*
X113881500Y-87493000D03*
X113881500Y-84953000D03*
X113881500Y-82413000D03*
X113881500Y-79873000D03*
X113881500Y-77333000D03*
X113881500Y-74793000D03*
X105941500Y-74793000D03*
X105941500Y-77333000D03*
X105941500Y-79873000D03*
X105941500Y-82413000D03*
X105941500Y-84953000D03*
X105941500Y-87493000D03*
X105941500Y-90033000D03*
X105941500Y-92573000D03*
%TD*%
D17*
%TO.C,U4*%
X127762000Y-89535000D03*
X130302000Y-89535000D03*
X132842000Y-89535000D03*
X135382000Y-89535000D03*
X137922000Y-89535000D03*
X140462000Y-89535000D03*
X143002000Y-89535000D03*
X145542000Y-89535000D03*
X148082000Y-89535000D03*
X150622000Y-89535000D03*
X153162000Y-89535000D03*
X155702000Y-89535000D03*
X158242000Y-89535000D03*
X160782000Y-89535000D03*
X160782000Y-97155000D03*
X158242000Y-97155000D03*
X155702000Y-97155000D03*
X153162000Y-97155000D03*
X150622000Y-97155000D03*
X148082000Y-97155000D03*
X145542000Y-97155000D03*
X143002000Y-97155000D03*
X140462000Y-97155000D03*
X137922000Y-97155000D03*
X135382000Y-97155000D03*
X132842000Y-97155000D03*
X130302000Y-97155000D03*
D18*
X127762000Y-97155000D03*
%TD*%
D19*
%TO.C,U3*%
X163977000Y-53327000D03*
X163977000Y-55327000D03*
X163977000Y-57327000D03*
X163977000Y-59327000D03*
X163977000Y-61327000D03*
X163977000Y-63327000D03*
X163977000Y-65327000D03*
X163977000Y-67327000D03*
D20*
X166577000Y-68827000D03*
X168577000Y-68827000D03*
X170577000Y-68827000D03*
X172577000Y-68827000D03*
X174577000Y-68827000D03*
X176577000Y-68827000D03*
D19*
X179177000Y-67327000D03*
X179177000Y-65327000D03*
X179177000Y-63327000D03*
X179177000Y-61327000D03*
X179177000Y-59327000D03*
X179177000Y-57327000D03*
X179177000Y-55327000D03*
X179177000Y-53327000D03*
%TD*%
D21*
%TO.C,U1*%
X145542000Y-63459000D03*
X143002000Y-63459000D03*
D22*
X140462000Y-63459000D03*
D23*
X143002000Y-46799000D03*
%TD*%
D24*
%TO.C,TP51*%
X129667000Y-129159000D03*
%TD*%
%TO.C,TP50*%
X138430000Y-115697000D03*
%TD*%
%TO.C,TP49*%
X126492000Y-103759000D03*
%TD*%
%TO.C,TP48*%
X136271000Y-108839000D03*
%TD*%
%TO.C,TP47*%
X134239000Y-115697000D03*
%TD*%
%TO.C,TP46*%
X155702000Y-124841000D03*
%TD*%
%TO.C,TP45*%
X118491000Y-122809000D03*
%TD*%
%TO.C,TP44*%
X102235000Y-116205000D03*
%TD*%
%TO.C,TP43*%
X106045000Y-116967000D03*
%TD*%
%TO.C,TP42*%
X130302000Y-115697000D03*
%TD*%
%TO.C,TP41*%
X118364000Y-131191000D03*
%TD*%
%TO.C,TP40*%
X167513000Y-129032000D03*
%TD*%
%TO.C,TP39*%
X146812000Y-122301000D03*
%TD*%
%TO.C,TP38*%
X145161000Y-115824000D03*
%TD*%
%TO.C,TP37*%
X159385000Y-128651000D03*
%TD*%
%TO.C,TP36*%
X176403000Y-127254000D03*
%TD*%
%TO.C,TP35*%
X175260000Y-101219000D03*
%TD*%
%TO.C,TP34*%
X192913000Y-128016000D03*
%TD*%
%TO.C,TP33*%
X153924000Y-110236000D03*
%TD*%
%TO.C,TP32*%
X171831000Y-126111000D03*
%TD*%
%TO.C,TP30*%
X117856000Y-91440000D03*
%TD*%
%TO.C,TP29*%
X143002000Y-86106000D03*
%TD*%
%TO.C,TP28*%
X122428000Y-93726000D03*
%TD*%
%TO.C,TP27*%
X115570000Y-97155000D03*
%TD*%
%TO.C,TP26*%
X107950000Y-95758000D03*
%TD*%
%TO.C,TP25*%
X156591000Y-100457000D03*
%TD*%
%TO.C,TP24*%
X183134000Y-69850000D03*
%TD*%
%TO.C,TP23*%
X170942000Y-74930000D03*
%TD*%
%TO.C,TP22*%
X173863000Y-77089000D03*
%TD*%
%TO.C,TP21*%
X162433000Y-72009000D03*
%TD*%
%TO.C,TP20*%
X144907000Y-100711000D03*
%TD*%
%TO.C,TP18*%
X159766000Y-136017000D03*
%TD*%
%TO.C,TP14*%
X142367000Y-123317000D03*
%TD*%
%TO.C,TP13*%
X161544000Y-76835000D03*
%TD*%
%TO.C,TP12*%
X111506000Y-114554000D03*
%TD*%
%TO.C,TP11*%
X123444000Y-116205000D03*
%TD*%
%TO.C,TP10*%
X164084000Y-114427000D03*
%TD*%
%TO.C,TP9*%
X137922000Y-131445000D03*
%TD*%
%TO.C,TP7*%
X173736000Y-141351000D03*
%TD*%
%TO.C,TP6*%
X110871000Y-118745000D03*
%TD*%
%TO.C,TP5*%
X159893000Y-107569000D03*
%TD*%
%TO.C,TP4*%
X135128000Y-58801000D03*
%TD*%
%TO.C,TP3*%
X121666000Y-58547000D03*
%TD*%
%TO.C,TP2*%
X114046000Y-63754000D03*
%TD*%
%TO.C,TP1*%
X150368000Y-69596000D03*
%TD*%
D25*
%TO.C,SW6*%
X179578000Y-137128000D03*
D26*
X177038000Y-137128000D03*
X174498000Y-137128000D03*
%TD*%
D18*
%TO.C,SW5*%
X135255000Y-67056000D03*
D17*
X132715000Y-67056000D03*
X130175000Y-67056000D03*
X127635000Y-67056000D03*
X125095000Y-67056000D03*
X122555000Y-67056000D03*
X120015000Y-67056000D03*
X117475000Y-67056000D03*
X117475000Y-74676000D03*
X120015000Y-74676000D03*
X122555000Y-74676000D03*
X125095000Y-74676000D03*
X127635000Y-74676000D03*
X130175000Y-74676000D03*
X132715000Y-74676000D03*
X135255000Y-74676000D03*
%TD*%
D24*
%TO.C,SW4*%
X182678000Y-62575000D03*
X189178000Y-62575000D03*
X189178000Y-58075000D03*
X182678000Y-58075000D03*
%TD*%
%TO.C,SW3*%
X159115000Y-48833000D03*
X152615000Y-48833000D03*
X152615000Y-53333000D03*
X159115000Y-53333000D03*
%TD*%
%TO.C,SW2*%
X144962000Y-78942000D03*
X144962000Y-72442000D03*
X140462000Y-72442000D03*
X140462000Y-78942000D03*
%TD*%
D25*
%TO.C,SW1*%
X107664000Y-49276000D03*
D26*
X107664000Y-51816000D03*
X107664000Y-54356000D03*
%TD*%
D27*
%TO.C,R21*%
X169418000Y-132842000D03*
D17*
X177038000Y-132842000D03*
%TD*%
D27*
%TO.C,R20*%
X186055000Y-82169000D03*
D17*
X178435000Y-82169000D03*
%TD*%
D27*
%TO.C,R19*%
X186055000Y-88900000D03*
D17*
X178435000Y-88900000D03*
%TD*%
D27*
%TO.C,R18*%
X186055000Y-95631000D03*
D17*
X178435000Y-95631000D03*
%TD*%
D27*
%TO.C,R17*%
X186055000Y-102235000D03*
D17*
X178435000Y-102235000D03*
%TD*%
D27*
%TO.C,R16*%
X186055000Y-108966000D03*
D17*
X178435000Y-108966000D03*
%TD*%
D27*
%TO.C,R15*%
X186055000Y-115697000D03*
D17*
X178435000Y-115697000D03*
%TD*%
%TO.C,R14*%
X178435000Y-122428000D03*
D27*
X186055000Y-122428000D03*
%TD*%
D28*
%TO.C,R13*%
X117511000Y-77190000D03*
X117511000Y-80290000D03*
%TD*%
%TO.C,R12*%
X120015000Y-77216000D03*
X120015000Y-80316000D03*
%TD*%
%TO.C,R11*%
X122555000Y-77216000D03*
X122555000Y-80316000D03*
%TD*%
%TO.C,R10*%
X125095000Y-77190000D03*
X125095000Y-80290000D03*
%TD*%
%TO.C,R9*%
X127635000Y-77190000D03*
X127635000Y-80290000D03*
%TD*%
%TO.C,R8*%
X130175000Y-77190000D03*
X130175000Y-80290000D03*
%TD*%
%TO.C,R7*%
X132715000Y-77216000D03*
X132715000Y-80316000D03*
%TD*%
%TO.C,R6*%
X135255000Y-77216000D03*
X135255000Y-80316000D03*
%TD*%
D29*
%TO.C,R4*%
X156666000Y-57277000D03*
X159766000Y-57277000D03*
%TD*%
%TO.C,R2*%
X182092000Y-65659000D03*
X185192000Y-65659000D03*
%TD*%
D28*
%TO.C,R1*%
X152654000Y-56007000D03*
X152654000Y-59107000D03*
%TD*%
D30*
%TO.C,Q1*%
X180279000Y-129129000D03*
X182179000Y-129129000D03*
X181229000Y-127254000D03*
%TD*%
D31*
%TO.C,P1*%
X169164000Y-139954000D03*
D32*
X166624000Y-139954000D03*
X164084000Y-139954000D03*
X161544000Y-139954000D03*
X159004000Y-139954000D03*
X156464000Y-139954000D03*
X153924000Y-139954000D03*
X151384000Y-139954000D03*
%TD*%
D33*
%TO.C,JP2*%
X148082000Y-85799000D03*
D34*
X148082000Y-87249000D03*
%TD*%
D35*
%TO.C,JP1*%
X130302000Y-100891000D03*
D36*
X130302000Y-99441000D03*
%TD*%
D37*
%TO.C,J2*%
X99822000Y-51816000D03*
D38*
X99822000Y-46736000D03*
%TD*%
D31*
%TO.C,J1*%
X192786000Y-59182000D03*
D32*
X192786000Y-56642000D03*
X192786000Y-54102000D03*
X192786000Y-51562000D03*
X192786000Y-49022000D03*
X192786000Y-46482000D03*
%TD*%
D39*
%TO.C,H4*%
X154178000Y-81407000D03*
%TD*%
%TO.C,H3*%
X163703000Y-131064000D03*
%TD*%
%TO.C,H2*%
X186182000Y-46101000D03*
%TD*%
%TO.C,H1*%
X128905000Y-58801000D03*
%TD*%
D40*
%TO.C,D7*%
X189230000Y-82169000D03*
D41*
X191770000Y-82169000D03*
%TD*%
%TO.C,D6*%
X191770000Y-88878833D03*
D40*
X189230000Y-88878833D03*
%TD*%
D41*
%TO.C,D5*%
X191770000Y-95588666D03*
D40*
X189230000Y-95588666D03*
%TD*%
%TO.C,D4*%
X189230000Y-102298499D03*
D41*
X191770000Y-102298499D03*
%TD*%
D40*
%TO.C,D3*%
X189230000Y-109008332D03*
D41*
X191770000Y-109008332D03*
%TD*%
D40*
%TO.C,D2*%
X189230000Y-115718165D03*
D41*
X191770000Y-115718165D03*
%TD*%
D40*
%TO.C,D1*%
X189230000Y-122428000D03*
D41*
X191770000Y-122428000D03*
%TD*%
D42*
%TO.C,C33*%
X139319000Y-134747000D03*
X139319000Y-137872000D03*
%TD*%
%TO.C,C32*%
X141859000Y-134747000D03*
X141859000Y-137872000D03*
%TD*%
D43*
%TO.C,C31*%
X145415000Y-136747000D03*
D44*
X145415000Y-134747000D03*
%TD*%
D27*
%TO.C,C30*%
X145415000Y-127161651D03*
D18*
X145415000Y-130961651D03*
%TD*%
D44*
%TO.C,C27*%
X99695000Y-118745000D03*
D43*
X97695000Y-118745000D03*
%TD*%
D18*
%TO.C,C26*%
X98435000Y-109601000D03*
D27*
X102235000Y-109601000D03*
%TD*%
D18*
%TO.C,C25*%
X153162000Y-135382000D03*
D27*
X153162000Y-131582000D03*
%TD*%
D42*
%TO.C,C24*%
X163195000Y-122555000D03*
X163195000Y-125680000D03*
%TD*%
%TO.C,C23*%
X165608000Y-122555000D03*
X165608000Y-125680000D03*
%TD*%
D44*
%TO.C,C22*%
X163195000Y-120225600D03*
D43*
X163195000Y-118225600D03*
%TD*%
D27*
%TO.C,C21*%
X156464000Y-116469000D03*
D18*
X156464000Y-120269000D03*
%TD*%
D42*
%TO.C,C20*%
X103721500Y-92573000D03*
X103721500Y-95698000D03*
%TD*%
%TO.C,C19*%
X101308500Y-95698000D03*
X101308500Y-92573000D03*
%TD*%
D43*
%TO.C,C18*%
X101308500Y-88033000D03*
D44*
X101308500Y-90033000D03*
%TD*%
D18*
%TO.C,C17*%
X156702000Y-67303000D03*
D27*
X156702000Y-71103000D03*
%TD*%
D45*
%TO.C,C16*%
X148082000Y-99695000D03*
X151207000Y-99695000D03*
%TD*%
%TO.C,C15*%
X148082000Y-102108000D03*
X151207000Y-102108000D03*
%TD*%
D44*
%TO.C,C14*%
X148082000Y-105791000D03*
D43*
X150082000Y-105791000D03*
%TD*%
D44*
%TO.C,C10*%
X96806000Y-78867000D03*
D43*
X98806000Y-78867000D03*
%TD*%
%TO.C,C9*%
X117348000Y-115792000D03*
D44*
X117348000Y-113792000D03*
%TD*%
%TO.C,C8*%
X106299000Y-100235000D03*
D43*
X106299000Y-102235000D03*
%TD*%
D44*
%TO.C,C7*%
X107950000Y-63742600D03*
D43*
X107950000Y-65742600D03*
%TD*%
%TO.C,C6*%
X107950000Y-59170600D03*
D44*
X107950000Y-61170600D03*
%TD*%
%TO.C,C5*%
X96817401Y-103378000D03*
D43*
X98817401Y-103378000D03*
%TD*%
D44*
%TO.C,C2*%
X145542000Y-67437000D03*
D43*
X147542000Y-67437000D03*
%TD*%
D44*
%TO.C,C1*%
X140462000Y-67437000D03*
D43*
X142462000Y-67437000D03*
%TD*%
D46*
%TO.C,BZ1*%
X184541000Y-135001000D03*
D24*
X192141000Y-135001000D03*
%TD*%
M02*
