%TF.GenerationSoftware,KiCad,Pcbnew,7.0.10*%
%TF.CreationDate,2024-02-21T03:28:03-08:00*%
%TF.ProjectId,b1,62312e6b-6963-4616-945f-706362585858,1*%
%TF.SameCoordinates,Original*%
%TF.FileFunction,Paste,Top*%
%TF.FilePolarity,Positive*%
%FSLAX46Y46*%
G04 Gerber Fmt 4.6, Leading zero omitted, Abs format (unit mm)*
G04 Created by KiCad (PCBNEW 7.0.10) date 2024-02-21 03:28:03*
%MOMM*%
%LPD*%
G01*
G04 APERTURE LIST*
G04 Aperture macros list*
%AMRoundRect*
0 Rectangle with rounded corners*
0 $1 Rounding radius*
0 $2 $3 $4 $5 $6 $7 $8 $9 X,Y pos of 4 corners*
0 Add a 4 corners polygon primitive as box body*
4,1,4,$2,$3,$4,$5,$6,$7,$8,$9,$2,$3,0*
0 Add four circle primitives for the rounded corners*
1,1,$1+$1,$2,$3*
1,1,$1+$1,$4,$5*
1,1,$1+$1,$6,$7*
1,1,$1+$1,$8,$9*
0 Add four rect primitives between the rounded corners*
20,1,$1+$1,$2,$3,$4,$5,0*
20,1,$1+$1,$4,$5,$6,$7,0*
20,1,$1+$1,$6,$7,$8,$9,0*
20,1,$1+$1,$8,$9,$2,$3,0*%
G04 Aperture macros list end*
%ADD10R,2.000000X1.500000*%
%ADD11R,2.000000X3.800000*%
%ADD12R,1.500000X2.000000*%
%ADD13R,2.500000X1.000000*%
%ADD14R,1.000000X1.800000*%
%ADD15RoundRect,0.250000X-0.625000X0.400000X-0.625000X-0.400000X0.625000X-0.400000X0.625000X0.400000X0*%
%ADD16RoundRect,0.250000X-0.400000X-0.625000X0.400000X-0.625000X0.400000X0.625000X-0.400000X0.625000X0*%
%ADD17RoundRect,0.150000X0.150000X-0.587500X0.150000X0.587500X-0.150000X0.587500X-0.150000X-0.587500X0*%
%ADD18RoundRect,0.250000X-0.650000X0.412500X-0.650000X-0.412500X0.650000X-0.412500X0.650000X0.412500X0*%
%ADD19RoundRect,0.250000X-0.412500X-0.650000X0.412500X-0.650000X0.412500X0.650000X-0.412500X0.650000X0*%
G04 APERTURE END LIST*
D10*
%TO.C,U2*%
X103988000Y-61170600D03*
X103988000Y-63470600D03*
D11*
X97688000Y-63470600D03*
D10*
X103988000Y-65770600D03*
%TD*%
D12*
%TO.C,U7*%
X100188000Y-122810000D03*
X102188000Y-122810000D03*
X104188000Y-122810000D03*
X106188000Y-122810000D03*
X108188000Y-122810000D03*
X110188000Y-122810000D03*
X112188000Y-122810000D03*
X114188000Y-122810000D03*
X114188000Y-138810000D03*
X112188000Y-138810000D03*
X110188000Y-138810000D03*
X108188000Y-138810000D03*
X106188000Y-138810000D03*
X104188000Y-138810000D03*
X102188000Y-138810000D03*
X100188000Y-138810000D03*
%TD*%
D13*
%TO.C,U3*%
X163977000Y-53327000D03*
X163977000Y-55327000D03*
X163977000Y-57327000D03*
X163977000Y-59327000D03*
X163977000Y-61327000D03*
X163977000Y-63327000D03*
X163977000Y-65327000D03*
X163977000Y-67327000D03*
D14*
X166577000Y-68827000D03*
X168577000Y-68827000D03*
X170577000Y-68827000D03*
X172577000Y-68827000D03*
X174577000Y-68827000D03*
X176577000Y-68827000D03*
D13*
X179177000Y-67327000D03*
X179177000Y-65327000D03*
X179177000Y-63327000D03*
X179177000Y-61327000D03*
X179177000Y-59327000D03*
X179177000Y-57327000D03*
X179177000Y-55327000D03*
X179177000Y-53327000D03*
%TD*%
D15*
%TO.C,R13*%
X117511000Y-77190000D03*
X117511000Y-80290000D03*
%TD*%
%TO.C,R12*%
X120015000Y-77216000D03*
X120015000Y-80316000D03*
%TD*%
%TO.C,R11*%
X122555000Y-77216000D03*
X122555000Y-80316000D03*
%TD*%
%TO.C,R10*%
X125095000Y-77190000D03*
X125095000Y-80290000D03*
%TD*%
%TO.C,R9*%
X127635000Y-77190000D03*
X127635000Y-80290000D03*
%TD*%
%TO.C,R8*%
X130175000Y-77190000D03*
X130175000Y-80290000D03*
%TD*%
%TO.C,R7*%
X132715000Y-77216000D03*
X132715000Y-80316000D03*
%TD*%
%TO.C,R6*%
X135255000Y-77216000D03*
X135255000Y-80316000D03*
%TD*%
D16*
%TO.C,R4*%
X156666000Y-57277000D03*
X159766000Y-57277000D03*
%TD*%
%TO.C,R2*%
X182092000Y-65659000D03*
X185192000Y-65659000D03*
%TD*%
D15*
%TO.C,R1*%
X152654000Y-56007000D03*
X152654000Y-59107000D03*
%TD*%
D17*
%TO.C,Q1*%
X180279000Y-129129000D03*
X182179000Y-129129000D03*
X181229000Y-127254000D03*
%TD*%
D18*
%TO.C,C33*%
X139319000Y-134747000D03*
X139319000Y-137872000D03*
%TD*%
%TO.C,C32*%
X141859000Y-134747000D03*
X141859000Y-137872000D03*
%TD*%
%TO.C,C24*%
X163195000Y-122555000D03*
X163195000Y-125680000D03*
%TD*%
%TO.C,C23*%
X165608000Y-122555000D03*
X165608000Y-125680000D03*
%TD*%
%TO.C,C20*%
X103721500Y-92573000D03*
X103721500Y-95698000D03*
%TD*%
%TO.C,C19*%
X101308500Y-95698000D03*
X101308500Y-92573000D03*
%TD*%
D19*
%TO.C,C16*%
X148082000Y-99695000D03*
X151207000Y-99695000D03*
%TD*%
%TO.C,C15*%
X148082000Y-102108000D03*
X151207000Y-102108000D03*
%TD*%
M02*
