%TF.GenerationSoftware,KiCad,Pcbnew,7.0.10*%
%TF.CreationDate,2024-02-21T03:28:03-08:00*%
%TF.ProjectId,b1,62312e6b-6963-4616-945f-706362585858,1*%
%TF.SameCoordinates,Original*%
%TF.FileFunction,Copper,L1,Top*%
%TF.FilePolarity,Positive*%
%FSLAX46Y46*%
G04 Gerber Fmt 4.6, Leading zero omitted, Abs format (unit mm)*
G04 Created by KiCad (PCBNEW 7.0.10) date 2024-02-21 03:28:03*
%MOMM*%
%LPD*%
G01*
G04 APERTURE LIST*
G04 Aperture macros list*
%AMRoundRect*
0 Rectangle with rounded corners*
0 $1 Rounding radius*
0 $2 $3 $4 $5 $6 $7 $8 $9 X,Y pos of 4 corners*
0 Add a 4 corners polygon primitive as box body*
4,1,4,$2,$3,$4,$5,$6,$7,$8,$9,$2,$3,0*
0 Add four circle primitives for the rounded corners*
1,1,$1+$1,$2,$3*
1,1,$1+$1,$4,$5*
1,1,$1+$1,$6,$7*
1,1,$1+$1,$8,$9*
0 Add four rect primitives between the rounded corners*
20,1,$1+$1,$2,$3,$4,$5,0*
20,1,$1+$1,$4,$5,$6,$7,0*
20,1,$1+$1,$6,$7,$8,$9,0*
20,1,$1+$1,$8,$9,$2,$3,0*%
%AMFreePoly0*
4,1,6,1.000000,0.000000,0.500000,-0.750000,-0.500000,-0.750000,-0.500000,0.750000,0.500000,0.750000,1.000000,0.000000,1.000000,0.000000,$1*%
%AMFreePoly1*
4,1,6,0.500000,-0.750000,-0.650000,-0.750000,-0.150000,0.000000,-0.650000,0.750000,0.500000,0.750000,0.500000,-0.750000,0.500000,-0.750000,$1*%
G04 Aperture macros list end*
%TA.AperFunction,SMDPad,CuDef*%
%ADD10R,2.000000X1.500000*%
%TD*%
%TA.AperFunction,SMDPad,CuDef*%
%ADD11R,2.000000X3.800000*%
%TD*%
%TA.AperFunction,ComponentPad*%
%ADD12R,1.350000X1.350000*%
%TD*%
%TA.AperFunction,ComponentPad*%
%ADD13O,1.350000X1.350000*%
%TD*%
%TA.AperFunction,SMDPad,CuDef*%
%ADD14R,1.500000X2.000000*%
%TD*%
%TA.AperFunction,ComponentPad*%
%ADD15C,1.130000*%
%TD*%
%TA.AperFunction,ComponentPad*%
%ADD16R,1.130000X1.130000*%
%TD*%
%TA.AperFunction,ComponentPad*%
%ADD17O,1.600000X1.600000*%
%TD*%
%TA.AperFunction,ComponentPad*%
%ADD18R,1.600000X1.600000*%
%TD*%
%TA.AperFunction,SMDPad,CuDef*%
%ADD19R,2.500000X1.000000*%
%TD*%
%TA.AperFunction,SMDPad,CuDef*%
%ADD20R,1.000000X1.800000*%
%TD*%
%TA.AperFunction,ComponentPad*%
%ADD21O,1.905000X2.000000*%
%TD*%
%TA.AperFunction,ComponentPad*%
%ADD22R,1.905000X2.000000*%
%TD*%
%TA.AperFunction,ComponentPad*%
%ADD23C,2.000000*%
%TD*%
%TA.AperFunction,ComponentPad*%
%ADD24R,1.408000X1.408000*%
%TD*%
%TA.AperFunction,ComponentPad*%
%ADD25C,1.408000*%
%TD*%
%TA.AperFunction,ComponentPad*%
%ADD26C,1.600000*%
%TD*%
%TA.AperFunction,SMDPad,CuDef*%
%ADD27RoundRect,0.250000X-0.625000X0.400000X-0.625000X-0.400000X0.625000X-0.400000X0.625000X0.400000X0*%
%TD*%
%TA.AperFunction,SMDPad,CuDef*%
%ADD28RoundRect,0.250000X-0.400000X-0.625000X0.400000X-0.625000X0.400000X0.625000X-0.400000X0.625000X0*%
%TD*%
%TA.AperFunction,SMDPad,CuDef*%
%ADD29RoundRect,0.150000X0.150000X-0.587500X0.150000X0.587500X-0.150000X0.587500X-0.150000X-0.587500X0*%
%TD*%
%TA.AperFunction,ComponentPad*%
%ADD30R,1.700000X1.700000*%
%TD*%
%TA.AperFunction,ComponentPad*%
%ADD31O,1.700000X1.700000*%
%TD*%
%TA.AperFunction,SMDPad,CuDef*%
%ADD32FreePoly0,270.000000*%
%TD*%
%TA.AperFunction,SMDPad,CuDef*%
%ADD33FreePoly1,270.000000*%
%TD*%
%TA.AperFunction,SMDPad,CuDef*%
%ADD34FreePoly0,90.000000*%
%TD*%
%TA.AperFunction,SMDPad,CuDef*%
%ADD35FreePoly1,90.000000*%
%TD*%
%TA.AperFunction,ComponentPad*%
%ADD36R,3.000000X3.000000*%
%TD*%
%TA.AperFunction,ComponentPad*%
%ADD37C,3.000000*%
%TD*%
%TA.AperFunction,ComponentPad*%
%ADD38R,1.800000X1.800000*%
%TD*%
%TA.AperFunction,ComponentPad*%
%ADD39C,1.800000*%
%TD*%
%TA.AperFunction,SMDPad,CuDef*%
%ADD40RoundRect,0.250000X-0.650000X0.412500X-0.650000X-0.412500X0.650000X-0.412500X0.650000X0.412500X0*%
%TD*%
%TA.AperFunction,ComponentPad*%
%ADD41C,1.200000*%
%TD*%
%TA.AperFunction,ComponentPad*%
%ADD42R,1.200000X1.200000*%
%TD*%
%TA.AperFunction,SMDPad,CuDef*%
%ADD43RoundRect,0.250000X-0.412500X-0.650000X0.412500X-0.650000X0.412500X0.650000X-0.412500X0.650000X0*%
%TD*%
%TA.AperFunction,ComponentPad*%
%ADD44R,2.000000X2.000000*%
%TD*%
%TA.AperFunction,ViaPad*%
%ADD45C,0.800000*%
%TD*%
%TA.AperFunction,Conductor*%
%ADD46C,0.250000*%
%TD*%
%TA.AperFunction,Conductor*%
%ADD47C,0.500000*%
%TD*%
G04 APERTURE END LIST*
D10*
%TO.P,U2,3,VI*%
%TO.N,/VRAW*%
X103988000Y-61170600D03*
%TO.P,U2,2,VO*%
%TO.N,/3V3*%
X103988000Y-63470600D03*
D11*
X97688000Y-63470600D03*
D10*
%TO.P,U2,1,GND*%
%TO.N,GND*%
X103988000Y-65770600D03*
%TD*%
D12*
%TO.P,U8,8,VCC*%
%TO.N,/3V3*%
X135095000Y-134747000D03*
D13*
%TO.P,U8,7,GND*%
%TO.N,GND*%
X133095000Y-134747000D03*
%TO.P,U8,6,DIN*%
%TO.N,/MOSI*%
X131095000Y-134747000D03*
%TO.P,U8,5,CLK*%
%TO.N,/SCLK*%
X129095000Y-134747000D03*
%TO.P,U8,4,~{CS}*%
%TO.N,/E-Paper/~{CS}*%
X127095000Y-134747000D03*
%TO.P,U8,3,DC*%
%TO.N,/E-Paper/DC*%
X125095000Y-134747000D03*
%TO.P,U8,2,~{RST}*%
%TO.N,/E-Paper/~{RST}*%
X123095000Y-134747000D03*
%TO.P,U8,1,BUSY*%
%TO.N,/E-Paper/BUSY*%
X121095000Y-134747000D03*
%TD*%
D14*
%TO.P,U7,16,GND*%
%TO.N,GND*%
X100188000Y-122810000D03*
%TO.P,U7,15,~{NSS}*%
%TO.N,/LoRa/~{NSS}*%
X102188000Y-122810000D03*
%TO.P,U7,14,MOSI*%
%TO.N,/MOSI*%
X104188000Y-122810000D03*
%TO.P,U7,13,MISO*%
%TO.N,/MISO*%
X106188000Y-122810000D03*
%TO.P,U7,12,SCK*%
%TO.N,/SCLK*%
X108188000Y-122810000D03*
%TO.P,U7,11,DIO5*%
%TO.N,unconnected-(U7-DIO5-Pad11)*%
X110188000Y-122810000D03*
%TO.P,U7,10,DIO4*%
%TO.N,unconnected-(U7-DIO4-Pad10)*%
X112188000Y-122810000D03*
%TO.P,U7,9,GND*%
%TO.N,GND*%
X114188000Y-122810000D03*
%TO.P,U7,8,DIO3*%
%TO.N,unconnected-(U7-DIO3-Pad8)*%
X114188000Y-138810000D03*
%TO.P,U7,7,DIO2*%
%TO.N,unconnected-(U7-DIO2-Pad7)*%
X112188000Y-138810000D03*
%TO.P,U7,6,DIO1*%
%TO.N,unconnected-(U7-DIO1-Pad6)*%
X110188000Y-138810000D03*
%TO.P,U7,5,DIO0*%
%TO.N,/LoRa/DIO0*%
X108188000Y-138810000D03*
%TO.P,U7,4,~{RESET}*%
%TO.N,/LoRa/~{RESET}*%
X106188000Y-138810000D03*
%TO.P,U7,3,VDD*%
%TO.N,/3V3*%
X104188000Y-138810000D03*
%TO.P,U7,2,GND*%
%TO.N,GND*%
X102188000Y-138810000D03*
%TO.P,U7,1,GND*%
X100188000Y-138810000D03*
%TD*%
D15*
%TO.P,U6,16,VCC*%
%TO.N,/3V3*%
X167767000Y-122555000D03*
%TO.P,U6,15,QA*%
%TO.N,Net-(U6-QA)*%
X167767000Y-120015000D03*
%TO.P,U6,14,SER*%
%TO.N,/MOSI*%
X167767000Y-117475000D03*
%TO.P,U6,13,~{OE}*%
%TO.N,GND*%
X167767000Y-114935000D03*
%TO.P,U6,12,RCLK*%
%TO.N,/Status Block/RCLK*%
X167767000Y-112395000D03*
%TO.P,U6,11,SRCLK*%
%TO.N,/SCLK*%
X167767000Y-109855000D03*
%TO.P,U6,10,~{SRCLR}*%
%TO.N,/3V3*%
X167767000Y-107315000D03*
%TO.P,U6,9,QH'*%
%TO.N,unconnected-(U6-QH'-Pad9)*%
X167767000Y-104775000D03*
%TO.P,U6,8,GND*%
%TO.N,GND*%
X175707000Y-104775000D03*
%TO.P,U6,7,QH*%
%TO.N,Net-(D7-A)*%
X175707000Y-107315000D03*
%TO.P,U6,6,QG*%
%TO.N,Net-(D6-A)*%
X175707000Y-109855000D03*
%TO.P,U6,5,QF*%
%TO.N,Net-(D5-A)*%
X175707000Y-112395000D03*
%TO.P,U6,4,QE*%
%TO.N,Net-(D4-A)*%
X175707000Y-114935000D03*
%TO.P,U6,3,QD*%
%TO.N,Net-(D3-A)*%
X175707000Y-117475000D03*
%TO.P,U6,2,QC*%
%TO.N,Net-(D2-A)*%
X175707000Y-120015000D03*
D16*
%TO.P,U6,1,QB*%
%TO.N,Net-(D1-A)*%
X175707000Y-122555000D03*
%TD*%
%TO.P,U5,1,~{PL}*%
%TO.N,/BID Register/~{PL}*%
X113881500Y-92573000D03*
D15*
%TO.P,U5,2,CP*%
%TO.N,/BID Register/CP*%
X113881500Y-90033000D03*
%TO.P,U5,3,D4*%
%TO.N,Net-(U5-D4)*%
X113881500Y-87493000D03*
%TO.P,U5,4,D5*%
%TO.N,Net-(U5-D5)*%
X113881500Y-84953000D03*
%TO.P,U5,5,D6*%
%TO.N,Net-(U5-D6)*%
X113881500Y-82413000D03*
%TO.P,U5,6,D7*%
%TO.N,Net-(U5-D7)*%
X113881500Y-79873000D03*
%TO.P,U5,7,~{Q7}*%
%TO.N,unconnected-(U5-~{Q7}-Pad7)*%
X113881500Y-77333000D03*
%TO.P,U5,8,GND*%
%TO.N,GND*%
X113881500Y-74793000D03*
%TO.P,U5,9,Q7*%
%TO.N,/BID Register/Q7*%
X105941500Y-74793000D03*
%TO.P,U5,10,DS*%
%TO.N,unconnected-(U5-DS-Pad10)*%
X105941500Y-77333000D03*
%TO.P,U5,11,D0*%
%TO.N,Net-(U5-D0)*%
X105941500Y-79873000D03*
%TO.P,U5,12,D1*%
%TO.N,Net-(U5-D1)*%
X105941500Y-82413000D03*
%TO.P,U5,13,D2*%
%TO.N,Net-(U5-D2)*%
X105941500Y-84953000D03*
%TO.P,U5,14,D3*%
%TO.N,Net-(U5-D3)*%
X105941500Y-87493000D03*
%TO.P,U5,15,~{CE}*%
%TO.N,/BID Register/~{CE}*%
X105941500Y-90033000D03*
%TO.P,U5,16,VCC*%
%TO.N,/3V3*%
X105941500Y-92573000D03*
%TD*%
D17*
%TO.P,U4,28,GPA7*%
%TO.N,/LoRa/~{RESET}*%
X127762000Y-89535000D03*
%TO.P,U4,27,GPA6*%
%TO.N,/LoRa/~{NSS}*%
X130302000Y-89535000D03*
%TO.P,U4,26,GPA5*%
%TO.N,/Scanner/RST*%
X132842000Y-89535000D03*
%TO.P,U4,25,GPA4*%
%TO.N,/Scanner/~{SS}*%
X135382000Y-89535000D03*
%TO.P,U4,24,GPA3*%
%TO.N,/Status Block/RCLK*%
X137922000Y-89535000D03*
%TO.P,U4,23,GPA2*%
%TO.N,/BID Register/~{CE}*%
X140462000Y-89535000D03*
%TO.P,U4,22,GPA1*%
%TO.N,/BID Register/~{PL}*%
X143002000Y-89535000D03*
%TO.P,U4,21,GPA0*%
%TO.N,/BID Register/CP*%
X145542000Y-89535000D03*
%TO.P,U4,20,INTA*%
%TO.N,/Wi-Fi and MCU/INTA*%
X148082000Y-89535000D03*
%TO.P,U4,19,INTB*%
%TO.N,/Wi-Fi and MCU/INTB*%
X150622000Y-89535000D03*
%TO.P,U4,18,~{RESET}*%
%TO.N,/3V3*%
X153162000Y-89535000D03*
%TO.P,U4,17,A2*%
%TO.N,GND*%
X155702000Y-89535000D03*
%TO.P,U4,16,A1*%
X158242000Y-89535000D03*
%TO.P,U4,15,A0*%
X160782000Y-89535000D03*
%TO.P,U4,14,NC*%
%TO.N,unconnected-(U4-NC-Pad14)*%
X160782000Y-97155000D03*
%TO.P,U4,13,SDA*%
%TO.N,Net-(U3-GPIO4)*%
X158242000Y-97155000D03*
%TO.P,U4,12,SCK*%
%TO.N,Net-(U3-GPIO5)*%
X155702000Y-97155000D03*
%TO.P,U4,11,NC*%
%TO.N,unconnected-(U4-NC-Pad11)*%
X153162000Y-97155000D03*
%TO.P,U4,10,VSS*%
%TO.N,GND*%
X150622000Y-97155000D03*
%TO.P,U4,9,VDD*%
%TO.N,/3V3*%
X148082000Y-97155000D03*
%TO.P,U4,8,GPB7*%
%TO.N,/Wi-Fi and MCU/GPB7*%
X145542000Y-97155000D03*
%TO.P,U4,7,GPB6*%
%TO.N,/Wi-Fi and MCU/GPB6*%
X143002000Y-97155000D03*
%TO.P,U4,6,GPB5*%
%TO.N,/E-Paper/~{RST}*%
X140462000Y-97155000D03*
%TO.P,U4,5,GPB4*%
%TO.N,/E-Paper/DC*%
X137922000Y-97155000D03*
%TO.P,U4,4,GPB3*%
%TO.N,/E-Paper/~{CS}*%
X135382000Y-97155000D03*
%TO.P,U4,3,GPB2*%
%TO.N,/E-Paper/BUSY*%
X132842000Y-97155000D03*
%TO.P,U4,2,GPB1*%
%TO.N,/Wi-Fi and MCU/GPB1*%
X130302000Y-97155000D03*
D18*
%TO.P,U4,1,GPB0*%
%TO.N,/BID Register/Q7*%
X127762000Y-97155000D03*
%TD*%
D19*
%TO.P,U3,1,~{RST}*%
%TO.N,Net-(U3-~{RST})*%
X163977000Y-53327000D03*
%TO.P,U3,2,ADC*%
%TO.N,unconnected-(U3-ADC-Pad2)*%
X163977000Y-55327000D03*
%TO.P,U3,3,EN*%
%TO.N,Net-(U3-EN)*%
X163977000Y-57327000D03*
%TO.P,U3,4,GPIO16*%
%TO.N,/Wi-Fi and MCU/GPIO16*%
X163977000Y-59327000D03*
%TO.P,U3,5,GPIO14*%
%TO.N,/SCLK*%
X163977000Y-61327000D03*
%TO.P,U3,6,GPIO12*%
%TO.N,/MISO*%
X163977000Y-63327000D03*
%TO.P,U3,7,GPIO13*%
%TO.N,/MOSI*%
X163977000Y-65327000D03*
%TO.P,U3,8,VCC*%
%TO.N,/5V*%
X163977000Y-67327000D03*
D20*
%TO.P,U3,9,CS0*%
%TO.N,unconnected-(U3-CS0-Pad9)*%
X166577000Y-68827000D03*
%TO.P,U3,10,MISO*%
%TO.N,unconnected-(U3-MISO-Pad10)*%
X168577000Y-68827000D03*
%TO.P,U3,11,GPIO9*%
%TO.N,unconnected-(U3-GPIO9-Pad11)*%
X170577000Y-68827000D03*
%TO.P,U3,12,GPIO10*%
%TO.N,unconnected-(U3-GPIO10-Pad12)*%
X172577000Y-68827000D03*
%TO.P,U3,13,MOSI*%
%TO.N,unconnected-(U3-MOSI-Pad13)*%
X174577000Y-68827000D03*
%TO.P,U3,14,SCLK*%
%TO.N,unconnected-(U3-SCLK-Pad14)*%
X176577000Y-68827000D03*
D19*
%TO.P,U3,15,GND*%
%TO.N,GND*%
X179177000Y-67327000D03*
%TO.P,U3,16,GPIO15*%
%TO.N,/Wi-Fi and MCU/GPIO15*%
X179177000Y-65327000D03*
%TO.P,U3,17,GPIO2*%
%TO.N,/Status Block/BUZZ*%
X179177000Y-63327000D03*
%TO.P,U3,18,GPIO0*%
%TO.N,/Wi-Fi and MCU/GPIO0*%
X179177000Y-61327000D03*
%TO.P,U3,19,GPIO4*%
%TO.N,Net-(U3-GPIO4)*%
X179177000Y-59327000D03*
%TO.P,U3,20,GPIO5*%
%TO.N,Net-(U3-GPIO5)*%
X179177000Y-57327000D03*
%TO.P,U3,21,GPIO3/RXD*%
%TO.N,Net-(J1-TX)*%
X179177000Y-55327000D03*
%TO.P,U3,22,GPIO1/TXD*%
%TO.N,Net-(J1-RX)*%
X179177000Y-53327000D03*
%TD*%
D21*
%TO.P,U1,3,OUT*%
%TO.N,/5V*%
X145542000Y-63459000D03*
%TO.P,U1,2,GND*%
%TO.N,GND*%
X143002000Y-63459000D03*
D22*
%TO.P,U1,1,IN*%
%TO.N,/VRAW*%
X140462000Y-63459000D03*
%TD*%
D23*
%TO.P,TP51,1,1*%
%TO.N,GND*%
X129667000Y-129159000D03*
%TD*%
%TO.P,TP50,1,1*%
%TO.N,/E-Paper/~{CS}*%
X138430000Y-115697000D03*
%TD*%
%TO.P,TP49,1,1*%
%TO.N,/E-Paper/DC*%
X126492000Y-103759000D03*
%TD*%
%TO.P,TP48,1,1*%
%TO.N,/E-Paper/~{RST}*%
X136271000Y-108839000D03*
%TD*%
%TO.P,TP47,1,1*%
%TO.N,/E-Paper/BUSY*%
X134239000Y-115697000D03*
%TD*%
%TO.P,TP46,1,1*%
%TO.N,/3V3*%
X155702000Y-124841000D03*
%TD*%
%TO.P,TP45,1,1*%
%TO.N,GND*%
X118491000Y-122809000D03*
%TD*%
%TO.P,TP44,1,1*%
%TO.N,/LoRa/~{RESET}*%
X102235000Y-116205000D03*
%TD*%
%TO.P,TP43,1,1*%
%TO.N,/LoRa/~{NSS}*%
X106045000Y-116967000D03*
%TD*%
%TO.P,TP42,1,1*%
%TO.N,/LoRa/DIO0*%
X130302000Y-115697000D03*
%TD*%
%TO.P,TP41,1,1*%
%TO.N,/3V3*%
X118364000Y-131191000D03*
%TD*%
%TO.P,TP40,1,1*%
%TO.N,GND*%
X167513000Y-129032000D03*
%TD*%
%TO.P,TP39,1,1*%
%TO.N,/Scanner/RST*%
X146812000Y-122301000D03*
%TD*%
%TO.P,TP38,1,1*%
%TO.N,/Scanner/~{SS}*%
X145161000Y-115824000D03*
%TD*%
%TO.P,TP37,1,1*%
%TO.N,/3V3*%
X159385000Y-128651000D03*
%TD*%
%TO.P,TP36,1,1*%
%TO.N,Net-(Q1-B)*%
X176403000Y-127254000D03*
%TD*%
%TO.P,TP35,1,1*%
%TO.N,GND*%
X175260000Y-101219000D03*
%TD*%
%TO.P,TP34,1,1*%
%TO.N,Net-(BZ1-+)*%
X192913000Y-128016000D03*
%TD*%
%TO.P,TP33,1,1*%
%TO.N,/Status Block/RCLK*%
X153924000Y-110236000D03*
%TD*%
%TO.P,TP32,1,1*%
%TO.N,/3V3*%
X171831000Y-126111000D03*
%TD*%
%TO.P,TP30,1,1*%
%TO.N,/BID Register/~{CE}*%
X117856000Y-91440000D03*
%TD*%
%TO.P,TP29,1,1*%
%TO.N,/BID Register/CP*%
X143002000Y-86106000D03*
%TD*%
%TO.P,TP28,1,1*%
%TO.N,/BID Register/~{PL}*%
X122428000Y-93726000D03*
%TD*%
%TO.P,TP27,1,1*%
%TO.N,/BID Register/Q7*%
X115570000Y-97155000D03*
%TD*%
%TO.P,TP26,1,1*%
%TO.N,/3V3*%
X107950000Y-95758000D03*
%TD*%
%TO.P,TP25,1,1*%
%TO.N,GND*%
X156591000Y-100457000D03*
%TD*%
%TO.P,TP24,1,1*%
%TO.N,GND*%
X183134000Y-69850000D03*
%TD*%
%TO.P,TP23,1,1*%
%TO.N,Net-(U3-GPIO5)*%
X170942000Y-74930000D03*
%TD*%
%TO.P,TP22,1,1*%
%TO.N,Net-(U3-GPIO4)*%
X173863000Y-77089000D03*
%TD*%
%TO.P,TP21,1,1*%
%TO.N,/5V*%
X162433000Y-72009000D03*
%TD*%
%TO.P,TP20,1,1*%
%TO.N,/3V3*%
X144907000Y-100711000D03*
%TD*%
%TO.P,TP18,1,1*%
%TO.N,/MOSI*%
X159766000Y-136017000D03*
%TD*%
%TO.P,TP14,1,1*%
%TO.N,/MOSI*%
X142367000Y-123317000D03*
%TD*%
%TO.P,TP13,1,1*%
%TO.N,/MISO*%
X161544000Y-76835000D03*
%TD*%
%TO.P,TP12,1,1*%
%TO.N,/MOSI*%
X111506000Y-114554000D03*
%TD*%
%TO.P,TP11,1,1*%
%TO.N,/MISO*%
X123444000Y-116205000D03*
%TD*%
%TO.P,TP10,1,1*%
%TO.N,/MOSI*%
X164084000Y-114427000D03*
%TD*%
%TO.P,TP9,1,1*%
%TO.N,/SCLK*%
X137922000Y-131445000D03*
%TD*%
%TO.P,TP7,1,1*%
%TO.N,/SCLK*%
X173736000Y-141351000D03*
%TD*%
%TO.P,TP6,1,1*%
%TO.N,/SCLK*%
X110871000Y-118745000D03*
%TD*%
%TO.P,TP5,1,1*%
%TO.N,/SCLK*%
X159893000Y-107569000D03*
%TD*%
%TO.P,TP4,1,1*%
%TO.N,GND*%
X135128000Y-58801000D03*
%TD*%
%TO.P,TP3,1,1*%
%TO.N,/VRAW*%
X121666000Y-58547000D03*
%TD*%
%TO.P,TP2,1,1*%
%TO.N,/3V3*%
X114046000Y-63754000D03*
%TD*%
%TO.P,TP1,1,1*%
%TO.N,/5V*%
X150368000Y-69596000D03*
%TD*%
D24*
%TO.P,SW6,1,A*%
%TO.N,Net-(Q1-B)*%
X179578000Y-137128000D03*
D25*
%TO.P,SW6,2,B*%
%TO.N,Net-(SW6-B)*%
X177038000Y-137128000D03*
%TO.P,SW6,3,C*%
%TO.N,GND*%
X174498000Y-137128000D03*
%TD*%
D18*
%TO.P,SW5,1*%
%TO.N,/3V3*%
X135255000Y-67056000D03*
D17*
%TO.P,SW5,2*%
X132715000Y-67056000D03*
%TO.P,SW5,3*%
X130175000Y-67056000D03*
%TO.P,SW5,4*%
X127635000Y-67056000D03*
%TO.P,SW5,5*%
X125095000Y-67056000D03*
%TO.P,SW5,6*%
X122555000Y-67056000D03*
%TO.P,SW5,7*%
X120015000Y-67056000D03*
%TO.P,SW5,8*%
X117475000Y-67056000D03*
%TO.P,SW5,9*%
%TO.N,Net-(U5-D7)*%
X117475000Y-74676000D03*
%TO.P,SW5,10*%
%TO.N,Net-(U5-D6)*%
X120015000Y-74676000D03*
%TO.P,SW5,11*%
%TO.N,Net-(U5-D5)*%
X122555000Y-74676000D03*
%TO.P,SW5,12*%
%TO.N,Net-(U5-D4)*%
X125095000Y-74676000D03*
%TO.P,SW5,13*%
%TO.N,Net-(U5-D3)*%
X127635000Y-74676000D03*
%TO.P,SW5,14*%
%TO.N,Net-(U5-D2)*%
X130175000Y-74676000D03*
%TO.P,SW5,15*%
%TO.N,Net-(U5-D1)*%
X132715000Y-74676000D03*
%TO.P,SW5,16*%
%TO.N,Net-(U5-D0)*%
X135255000Y-74676000D03*
%TD*%
D23*
%TO.P,SW4,1,1*%
%TO.N,GND*%
X182678000Y-62575000D03*
X189178000Y-62575000D03*
%TO.P,SW4,2,2*%
%TO.N,/Wi-Fi and MCU/GPIO0*%
X189178000Y-58075000D03*
X182678000Y-58075000D03*
%TD*%
%TO.P,SW3,1,1*%
%TO.N,GND*%
X159115000Y-48833000D03*
X152615000Y-48833000D03*
%TO.P,SW3,2,2*%
%TO.N,Net-(U3-~{RST})*%
X152615000Y-53333000D03*
X159115000Y-53333000D03*
%TD*%
%TO.P,SW2,1,1*%
%TO.N,/5V*%
X144962000Y-78942000D03*
X144962000Y-72442000D03*
%TO.P,SW2,2,2*%
%TO.N,/VRAW*%
X140462000Y-72442000D03*
X140462000Y-78942000D03*
%TD*%
D24*
%TO.P,SW1,1,A*%
%TO.N,/VRAW*%
X107664000Y-49276000D03*
D25*
%TO.P,SW1,2,B*%
%TO.N,Net-(J2-Pin_1)*%
X107664000Y-51816000D03*
%TO.P,SW1,3,C*%
%TO.N,unconnected-(SW1-C-Pad3)*%
X107664000Y-54356000D03*
%TD*%
D26*
%TO.P,R21,1*%
%TO.N,Net-(U6-QA)*%
X169418000Y-132842000D03*
D17*
%TO.P,R21,2*%
%TO.N,Net-(SW6-B)*%
X177038000Y-132842000D03*
%TD*%
D26*
%TO.P,R20,1*%
%TO.N,Net-(D7-K)*%
X186055000Y-82169000D03*
D17*
%TO.P,R20,2*%
%TO.N,GND*%
X178435000Y-82169000D03*
%TD*%
D26*
%TO.P,R19,1*%
%TO.N,Net-(D6-K)*%
X186055000Y-88900000D03*
D17*
%TO.P,R19,2*%
%TO.N,GND*%
X178435000Y-88900000D03*
%TD*%
D26*
%TO.P,R18,1*%
%TO.N,Net-(D5-K)*%
X186055000Y-95631000D03*
D17*
%TO.P,R18,2*%
%TO.N,GND*%
X178435000Y-95631000D03*
%TD*%
D26*
%TO.P,R17,1*%
%TO.N,Net-(D4-K)*%
X186055000Y-102235000D03*
D17*
%TO.P,R17,2*%
%TO.N,GND*%
X178435000Y-102235000D03*
%TD*%
D26*
%TO.P,R16,1*%
%TO.N,Net-(D3-K)*%
X186055000Y-108966000D03*
D17*
%TO.P,R16,2*%
%TO.N,GND*%
X178435000Y-108966000D03*
%TD*%
D26*
%TO.P,R15,1*%
%TO.N,Net-(D2-K)*%
X186055000Y-115697000D03*
D17*
%TO.P,R15,2*%
%TO.N,GND*%
X178435000Y-115697000D03*
%TD*%
%TO.P,R14,2*%
%TO.N,GND*%
X178435000Y-122428000D03*
D26*
%TO.P,R14,1*%
%TO.N,Net-(D1-K)*%
X186055000Y-122428000D03*
%TD*%
D27*
%TO.P,R13,1*%
%TO.N,Net-(U5-D7)*%
X117511000Y-77190000D03*
%TO.P,R13,2*%
%TO.N,GND*%
X117511000Y-80290000D03*
%TD*%
%TO.P,R12,1*%
%TO.N,Net-(U5-D6)*%
X120015000Y-77216000D03*
%TO.P,R12,2*%
%TO.N,GND*%
X120015000Y-80316000D03*
%TD*%
%TO.P,R11,1*%
%TO.N,Net-(U5-D5)*%
X122555000Y-77216000D03*
%TO.P,R11,2*%
%TO.N,GND*%
X122555000Y-80316000D03*
%TD*%
%TO.P,R10,1*%
%TO.N,Net-(U5-D4)*%
X125095000Y-77190000D03*
%TO.P,R10,2*%
%TO.N,GND*%
X125095000Y-80290000D03*
%TD*%
%TO.P,R9,1*%
%TO.N,Net-(U5-D3)*%
X127635000Y-77190000D03*
%TO.P,R9,2*%
%TO.N,GND*%
X127635000Y-80290000D03*
%TD*%
%TO.P,R8,1*%
%TO.N,Net-(U5-D2)*%
X130175000Y-77190000D03*
%TO.P,R8,2*%
%TO.N,GND*%
X130175000Y-80290000D03*
%TD*%
%TO.P,R7,1*%
%TO.N,Net-(U5-D1)*%
X132715000Y-77216000D03*
%TO.P,R7,2*%
%TO.N,GND*%
X132715000Y-80316000D03*
%TD*%
%TO.P,R6,1*%
%TO.N,Net-(U5-D0)*%
X135255000Y-77216000D03*
%TO.P,R6,2*%
%TO.N,GND*%
X135255000Y-80316000D03*
%TD*%
D28*
%TO.P,R4,1*%
%TO.N,/5V*%
X156666000Y-57277000D03*
%TO.P,R4,2*%
%TO.N,Net-(U3-EN)*%
X159766000Y-57277000D03*
%TD*%
%TO.P,R2,1*%
%TO.N,/Status Block/BUZZ*%
X182092000Y-65659000D03*
%TO.P,R2,2*%
%TO.N,/5V*%
X185192000Y-65659000D03*
%TD*%
D27*
%TO.P,R1,1*%
%TO.N,Net-(U3-~{RST})*%
X152654000Y-56007000D03*
%TO.P,R1,2*%
%TO.N,/5V*%
X152654000Y-59107000D03*
%TD*%
D29*
%TO.P,Q1,1,B*%
%TO.N,Net-(Q1-B)*%
X180279000Y-129129000D03*
%TO.P,Q1,2,E*%
%TO.N,Net-(BZ1-+)*%
X182179000Y-129129000D03*
%TO.P,Q1,3,C*%
%TO.N,/Status Block/BUZZ*%
X181229000Y-127254000D03*
%TD*%
D30*
%TO.P,P1,1,SDA*%
%TO.N,/Scanner/~{SS}*%
X169164000Y-139954000D03*
D31*
%TO.P,P1,2,SCK*%
%TO.N,/SCLK*%
X166624000Y-139954000D03*
%TO.P,P1,3,MOSI*%
%TO.N,/MOSI*%
X164084000Y-139954000D03*
%TO.P,P1,4,MISO*%
%TO.N,/MISO*%
X161544000Y-139954000D03*
%TO.P,P1,5,IRQ*%
%TO.N,unconnected-(P1-IRQ-Pad5)*%
X159004000Y-139954000D03*
%TO.P,P1,6,GND*%
%TO.N,GND*%
X156464000Y-139954000D03*
%TO.P,P1,7,RST*%
%TO.N,/Scanner/RST*%
X153924000Y-139954000D03*
%TO.P,P1,8,3.3V*%
%TO.N,/3V3*%
X151384000Y-139954000D03*
%TD*%
D32*
%TO.P,JP2,1,A*%
%TO.N,/LoRa/DIO0*%
X148082000Y-85799000D03*
D33*
%TO.P,JP2,2,B*%
%TO.N,/Wi-Fi and MCU/INTA*%
X148082000Y-87249000D03*
%TD*%
D34*
%TO.P,JP1,1,A*%
%TO.N,/LoRa/DIO0*%
X130302000Y-100891000D03*
D35*
%TO.P,JP1,2,B*%
%TO.N,/Wi-Fi and MCU/GPB1*%
X130302000Y-99441000D03*
%TD*%
D36*
%TO.P,J2,1,Pin_1*%
%TO.N,Net-(J2-Pin_1)*%
X99822000Y-51816000D03*
D37*
%TO.P,J2,2,Pin_2*%
%TO.N,GND*%
X99822000Y-46736000D03*
%TD*%
D30*
%TO.P,J1,1,GND*%
%TO.N,GND*%
X192786000Y-59182000D03*
D31*
%TO.P,J1,2,CTS*%
%TO.N,unconnected-(J1-CTS-Pad2)*%
X192786000Y-56642000D03*
%TO.P,J1,3,5V*%
%TO.N,unconnected-(J1-5V-Pad3)*%
X192786000Y-54102000D03*
%TO.P,J1,4,TX*%
%TO.N,Net-(J1-TX)*%
X192786000Y-51562000D03*
%TO.P,J1,5,RX*%
%TO.N,Net-(J1-RX)*%
X192786000Y-49022000D03*
%TO.P,J1,6,DTR*%
%TO.N,unconnected-(J1-DTR-Pad6)*%
X192786000Y-46482000D03*
%TD*%
D38*
%TO.P,D7,1,K*%
%TO.N,Net-(D7-K)*%
X189230000Y-82169000D03*
D39*
%TO.P,D7,2,A*%
%TO.N,Net-(D7-A)*%
X191770000Y-82169000D03*
%TD*%
%TO.P,D6,2,A*%
%TO.N,Net-(D6-A)*%
X191770000Y-88878833D03*
D38*
%TO.P,D6,1,K*%
%TO.N,Net-(D6-K)*%
X189230000Y-88878833D03*
%TD*%
D39*
%TO.P,D5,2,A*%
%TO.N,Net-(D5-A)*%
X191770000Y-95588666D03*
D38*
%TO.P,D5,1,K*%
%TO.N,Net-(D5-K)*%
X189230000Y-95588666D03*
%TD*%
%TO.P,D4,1,K*%
%TO.N,Net-(D4-K)*%
X189230000Y-102298499D03*
D39*
%TO.P,D4,2,A*%
%TO.N,Net-(D4-A)*%
X191770000Y-102298499D03*
%TD*%
D38*
%TO.P,D3,1,K*%
%TO.N,Net-(D3-K)*%
X189230000Y-109008332D03*
D39*
%TO.P,D3,2,A*%
%TO.N,Net-(D3-A)*%
X191770000Y-109008332D03*
%TD*%
D38*
%TO.P,D2,1,K*%
%TO.N,Net-(D2-K)*%
X189230000Y-115718165D03*
D39*
%TO.P,D2,2,A*%
%TO.N,Net-(D2-A)*%
X191770000Y-115718165D03*
%TD*%
D38*
%TO.P,D1,1,K*%
%TO.N,Net-(D1-K)*%
X189230000Y-122428000D03*
D39*
%TO.P,D1,2,A*%
%TO.N,Net-(D1-A)*%
X191770000Y-122428000D03*
%TD*%
D40*
%TO.P,C33,1*%
%TO.N,/3V3*%
X139319000Y-134747000D03*
%TO.P,C33,2*%
%TO.N,GND*%
X139319000Y-137872000D03*
%TD*%
%TO.P,C32,1*%
%TO.N,/3V3*%
X141859000Y-134747000D03*
%TO.P,C32,2*%
%TO.N,GND*%
X141859000Y-137872000D03*
%TD*%
D41*
%TO.P,C31,2*%
%TO.N,GND*%
X145415000Y-136747000D03*
D42*
%TO.P,C31,1*%
%TO.N,/3V3*%
X145415000Y-134747000D03*
%TD*%
D26*
%TO.P,C30,2*%
%TO.N,GND*%
X145415000Y-127161651D03*
D18*
%TO.P,C30,1*%
%TO.N,/3V3*%
X145415000Y-130961651D03*
%TD*%
D42*
%TO.P,C27,1*%
%TO.N,/3V3*%
X99695000Y-118745000D03*
D41*
%TO.P,C27,2*%
%TO.N,GND*%
X97695000Y-118745000D03*
%TD*%
D18*
%TO.P,C26,1*%
%TO.N,/3V3*%
X98435000Y-109601000D03*
D26*
%TO.P,C26,2*%
%TO.N,GND*%
X102235000Y-109601000D03*
%TD*%
D18*
%TO.P,C25,1*%
%TO.N,/3V3*%
X153162000Y-135382000D03*
D26*
%TO.P,C25,2*%
%TO.N,GND*%
X153162000Y-131582000D03*
%TD*%
D40*
%TO.P,C24,1*%
%TO.N,/3V3*%
X163195000Y-122555000D03*
%TO.P,C24,2*%
%TO.N,GND*%
X163195000Y-125680000D03*
%TD*%
%TO.P,C23,1*%
%TO.N,/3V3*%
X165608000Y-122555000D03*
%TO.P,C23,2*%
%TO.N,GND*%
X165608000Y-125680000D03*
%TD*%
D42*
%TO.P,C22,1*%
%TO.N,/3V3*%
X163195000Y-120225600D03*
D41*
%TO.P,C22,2*%
%TO.N,GND*%
X163195000Y-118225600D03*
%TD*%
D26*
%TO.P,C21,2*%
%TO.N,GND*%
X156464000Y-116469000D03*
D18*
%TO.P,C21,1*%
%TO.N,/3V3*%
X156464000Y-120269000D03*
%TD*%
D40*
%TO.P,C20,1*%
%TO.N,/3V3*%
X103721500Y-92573000D03*
%TO.P,C20,2*%
%TO.N,GND*%
X103721500Y-95698000D03*
%TD*%
%TO.P,C19,2*%
%TO.N,GND*%
X101308500Y-95698000D03*
%TO.P,C19,1*%
%TO.N,/3V3*%
X101308500Y-92573000D03*
%TD*%
D41*
%TO.P,C18,2*%
%TO.N,GND*%
X101308500Y-88033000D03*
D42*
%TO.P,C18,1*%
%TO.N,/3V3*%
X101308500Y-90033000D03*
%TD*%
D18*
%TO.P,C17,1*%
%TO.N,/5V*%
X156702000Y-67303000D03*
D26*
%TO.P,C17,2*%
%TO.N,GND*%
X156702000Y-71103000D03*
%TD*%
D43*
%TO.P,C16,1*%
%TO.N,/3V3*%
X148082000Y-99695000D03*
%TO.P,C16,2*%
%TO.N,GND*%
X151207000Y-99695000D03*
%TD*%
%TO.P,C15,1*%
%TO.N,/3V3*%
X148082000Y-102108000D03*
%TO.P,C15,2*%
%TO.N,GND*%
X151207000Y-102108000D03*
%TD*%
D42*
%TO.P,C14,1*%
%TO.N,/3V3*%
X148082000Y-105791000D03*
D41*
%TO.P,C14,2*%
%TO.N,GND*%
X150082000Y-105791000D03*
%TD*%
D42*
%TO.P,C10,1*%
%TO.N,/3V3*%
X96806000Y-78867000D03*
D41*
%TO.P,C10,2*%
%TO.N,GND*%
X98806000Y-78867000D03*
%TD*%
%TO.P,C9,2*%
%TO.N,GND*%
X117348000Y-115792000D03*
D42*
%TO.P,C9,1*%
%TO.N,/3V3*%
X117348000Y-113792000D03*
%TD*%
%TO.P,C8,1*%
%TO.N,/3V3*%
X106299000Y-100235000D03*
D41*
%TO.P,C8,2*%
%TO.N,GND*%
X106299000Y-102235000D03*
%TD*%
D42*
%TO.P,C7,1*%
%TO.N,/3V3*%
X107950000Y-63742600D03*
D41*
%TO.P,C7,2*%
%TO.N,GND*%
X107950000Y-65742600D03*
%TD*%
%TO.P,C6,2*%
%TO.N,GND*%
X107950000Y-59170600D03*
D42*
%TO.P,C6,1*%
%TO.N,/VRAW*%
X107950000Y-61170600D03*
%TD*%
%TO.P,C5,1*%
%TO.N,/3V3*%
X96817401Y-103378000D03*
D41*
%TO.P,C5,2*%
%TO.N,GND*%
X98817401Y-103378000D03*
%TD*%
D42*
%TO.P,C2,1*%
%TO.N,/5V*%
X145542000Y-67437000D03*
D41*
%TO.P,C2,2*%
%TO.N,GND*%
X147542000Y-67437000D03*
%TD*%
D42*
%TO.P,C1,1*%
%TO.N,/VRAW*%
X140462000Y-67437000D03*
D41*
%TO.P,C1,2*%
%TO.N,GND*%
X142462000Y-67437000D03*
%TD*%
D44*
%TO.P,BZ1,1,+*%
%TO.N,Net-(BZ1-+)*%
X184541000Y-135001000D03*
D23*
%TO.P,BZ1,2,-*%
%TO.N,GND*%
X192141000Y-135001000D03*
%TD*%
D45*
%TO.N,GND*%
X138430000Y-125984000D03*
X139319000Y-128778000D03*
X168910000Y-137668000D03*
X167894000Y-135001000D03*
X162306000Y-102616000D03*
X165481000Y-99949000D03*
X168402000Y-102108000D03*
X105537000Y-96774000D03*
X137668000Y-81153000D03*
X102997000Y-68199000D03*
X100330000Y-135890000D03*
X100711000Y-125857000D03*
%TO.N,/LoRa/DIO0*%
X130302000Y-102870000D03*
%TO.N,GND*%
X132334000Y-131826000D03*
%TO.N,/MISO*%
X169545000Y-98933000D03*
X124333000Y-109474000D03*
X161290000Y-63754000D03*
X169037000Y-81661000D03*
%TO.N,/Scanner/RST*%
X142621000Y-117094000D03*
%TO.N,/E-Paper/~{RST}*%
X137287000Y-104394000D03*
X136271000Y-114554000D03*
%TO.N,/SCLK*%
X140335000Y-118618000D03*
%TO.N,/E-Paper/DC*%
X125095000Y-124968000D03*
X126492000Y-116586000D03*
%TO.N,/5V*%
X170053000Y-62357000D03*
%TO.N,/3V3*%
X114300000Y-108966000D03*
X104178500Y-136563500D03*
%TO.N,Net-(U3-GPIO5)*%
X176784000Y-57327000D03*
%TO.N,Net-(U3-GPIO4)*%
X176784000Y-59327000D03*
%TO.N,/LoRa/DIO0*%
X148082000Y-84201000D03*
%TO.N,/LoRa/~{RESET}*%
X106188000Y-135128000D03*
%TO.N,/SCLK*%
X165481000Y-107569000D03*
%TO.N,/MOSI*%
X166370000Y-65278000D03*
%TO.N,/SCLK*%
X166370000Y-61214000D03*
%TO.N,/Status Block/BUZZ*%
X185928000Y-68453000D03*
X184150000Y-126619000D03*
%TO.N,/Wi-Fi and MCU/GPIO15*%
X176784000Y-65278000D03*
%TO.N,/Wi-Fi and MCU/GPIO0*%
X176784000Y-61341000D03*
%TD*%
D46*
%TO.N,GND*%
X138430000Y-125984000D02*
X139319000Y-126873000D01*
X139319000Y-126873000D02*
X139319000Y-128778000D01*
X167894000Y-135001000D02*
X168910000Y-136017000D01*
X168910000Y-136017000D02*
X168910000Y-137668000D01*
X168402000Y-102108000D02*
X166243000Y-99949000D01*
X166243000Y-99949000D02*
X165481000Y-99949000D01*
X162306000Y-102616000D02*
X164973000Y-99949000D01*
X164973000Y-99949000D02*
X165481000Y-99949000D01*
X139319000Y-137872000D02*
X136220000Y-137872000D01*
X136220000Y-137872000D02*
X133095000Y-134747000D01*
X163195000Y-118225600D02*
X158220600Y-118225600D01*
X158220600Y-118225600D02*
X156464000Y-116469000D01*
X151207000Y-102108000D02*
X151207000Y-104666000D01*
X151207000Y-104666000D02*
X150082000Y-105791000D01*
X104461000Y-95698000D02*
X105537000Y-96774000D01*
X103721500Y-95698000D02*
X104461000Y-95698000D01*
X141859000Y-137872000D02*
X144290000Y-137872000D01*
X144290000Y-137872000D02*
X145415000Y-136747000D01*
X163195000Y-118225600D02*
X164476400Y-118225600D01*
X164476400Y-118225600D02*
X167767000Y-114935000D01*
X101308500Y-95698000D02*
X103721500Y-95698000D01*
X141859000Y-137872000D02*
X139319000Y-137872000D01*
X167513000Y-129032000D02*
X167513000Y-127585000D01*
X167513000Y-127585000D02*
X165608000Y-125680000D01*
X163195000Y-125680000D02*
X165608000Y-125680000D01*
X136831000Y-80316000D02*
X137668000Y-81153000D01*
X135255000Y-80316000D02*
X136831000Y-80316000D01*
X117511000Y-80290000D02*
X135229000Y-80290000D01*
X135229000Y-80290000D02*
X135255000Y-80316000D01*
X103988000Y-67208000D02*
X102997000Y-68199000D01*
X103988000Y-65770600D02*
X103988000Y-67208000D01*
X97695000Y-118745000D02*
X97695000Y-120317000D01*
X97695000Y-120317000D02*
X100188000Y-122810000D01*
X100330000Y-135890000D02*
X100188000Y-136032000D01*
X100188000Y-136032000D02*
X100188000Y-138810000D01*
X100188000Y-125334000D02*
X100711000Y-125857000D01*
X100188000Y-122810000D02*
X100188000Y-125334000D01*
X102188000Y-138810000D02*
X100188000Y-138810000D01*
%TO.N,/Wi-Fi and MCU/GPB1*%
X130302000Y-99441000D02*
X130302000Y-97155000D01*
%TO.N,/LoRa/DIO0*%
X130302000Y-102870000D02*
X130302000Y-100891000D01*
%TO.N,/5V*%
X185192000Y-65659000D02*
X187706000Y-68173000D01*
X187706000Y-68173000D02*
X187706000Y-70104000D01*
X164973000Y-69850000D02*
X164973000Y-68323000D01*
X187706000Y-70104000D02*
X185674000Y-72136000D01*
X185674000Y-72136000D02*
X171196000Y-72136000D01*
X171196000Y-72136000D02*
X170053000Y-70993000D01*
X170053000Y-70993000D02*
X166116000Y-70993000D01*
X166116000Y-70993000D02*
X164973000Y-69850000D01*
X164973000Y-68323000D02*
X163977000Y-67327000D01*
%TO.N,/Scanner/~{SS}*%
X145161000Y-115824000D02*
X145669000Y-115824000D01*
X167164000Y-137922000D02*
X169164000Y-139922000D01*
X145669000Y-115824000D02*
X153543000Y-123698000D01*
X153543000Y-123698000D02*
X153543000Y-125730000D01*
X153543000Y-125730000D02*
X165735000Y-137922000D01*
X165735000Y-137922000D02*
X167164000Y-137922000D01*
X169164000Y-139922000D02*
X169164000Y-139954000D01*
%TO.N,/3V3*%
X104188000Y-138810000D02*
X104188000Y-138255000D01*
X104188000Y-138255000D02*
X105283000Y-137160000D01*
X105283000Y-137160000D02*
X105283000Y-134366000D01*
X105283000Y-134366000D02*
X108458000Y-131191000D01*
X108458000Y-131191000D02*
X118364000Y-131191000D01*
%TO.N,/Status Block/RCLK*%
X153924000Y-110236000D02*
X165608000Y-110236000D01*
%TO.N,GND*%
X150622000Y-97155000D02*
X151257000Y-97155000D01*
X151257000Y-97155000D02*
X154559000Y-100457000D01*
X154559000Y-100457000D02*
X156591000Y-100457000D01*
X151207000Y-102108000D02*
X151207000Y-97740000D01*
X151207000Y-97740000D02*
X150622000Y-97155000D01*
X133095000Y-134747000D02*
X133095000Y-132587000D01*
X133095000Y-132587000D02*
X132334000Y-131826000D01*
%TO.N,/SCLK*%
X137922000Y-131445000D02*
X134683500Y-128206500D01*
X129095000Y-134747000D02*
X129095000Y-133795000D01*
X129095000Y-133795000D02*
X134683500Y-128206500D01*
X134683500Y-128206500D02*
X140335000Y-122555000D01*
X140335000Y-122555000D02*
X140335000Y-118618000D01*
%TO.N,/E-Paper/~{RST}*%
X123095000Y-134747000D02*
X123095000Y-132683000D01*
X123095000Y-132683000D02*
X136271000Y-119507000D01*
X136271000Y-119507000D02*
X136271000Y-114554000D01*
%TO.N,/E-Paper/BUSY*%
X134239000Y-115697000D02*
X134239000Y-119761000D01*
X134239000Y-119761000D02*
X121095000Y-132905000D01*
X121095000Y-132905000D02*
X121095000Y-134747000D01*
%TO.N,/MOSI*%
X164084000Y-139954000D02*
X160147000Y-136017000D01*
X160147000Y-136017000D02*
X159766000Y-136017000D01*
%TO.N,/SCLK*%
X173736000Y-141351000D02*
X168021000Y-141351000D01*
X168021000Y-141351000D02*
X166624000Y-139954000D01*
%TO.N,Net-(Q1-B)*%
X180279000Y-129129000D02*
X178404000Y-127254000D01*
X178404000Y-127254000D02*
X176530000Y-127254000D01*
%TO.N,/3V3*%
X96806000Y-106648000D02*
X96806000Y-78867000D01*
X97409000Y-83312000D02*
X100330000Y-80391000D01*
X97409000Y-98933000D02*
X97409000Y-83312000D01*
X96647000Y-108966000D02*
X100838000Y-104775000D01*
X100838000Y-102362000D02*
X97409000Y-98933000D01*
X96647000Y-121158000D02*
X96647000Y-108966000D01*
X145415000Y-130961651D02*
X148209000Y-133755651D01*
X100838000Y-104775000D02*
X100838000Y-102362000D01*
X97028000Y-121539000D02*
X96647000Y-121158000D01*
X97028000Y-138938000D02*
X97028000Y-121539000D01*
X98933000Y-140843000D02*
X97028000Y-138938000D01*
X144272000Y-140843000D02*
X98933000Y-140843000D01*
X148209000Y-136906000D02*
X144272000Y-140843000D01*
X148209000Y-133755651D02*
X148209000Y-136906000D01*
X100330000Y-67818000D02*
X97688000Y-65176000D01*
X100330000Y-80391000D02*
X100330000Y-67818000D01*
X97688000Y-65176000D02*
X97688000Y-63470600D01*
X98435000Y-109601000D02*
X102235000Y-105801000D01*
X102235000Y-105801000D02*
X102235000Y-102743000D01*
X102235000Y-102743000D02*
X98171000Y-98679000D01*
X98171000Y-98679000D02*
X98171000Y-83439000D01*
X98171000Y-83439000D02*
X100838000Y-80772000D01*
X100838000Y-80772000D02*
X100838000Y-66620600D01*
X100838000Y-66620600D02*
X97688000Y-63470600D01*
X106299000Y-100235000D02*
X100659401Y-100235000D01*
X100659401Y-100235000D02*
X98679000Y-98254599D01*
X110998000Y-105664000D02*
X110998000Y-105625852D01*
X110998000Y-105625852D02*
X106299000Y-100926852D01*
X106299000Y-100926852D02*
X106299000Y-100235000D01*
X148082000Y-105791000D02*
X124587000Y-105791000D01*
X124587000Y-105791000D02*
X119031000Y-100235000D01*
X119031000Y-100235000D02*
X106299000Y-100235000D01*
X153162000Y-135382000D02*
X152019000Y-135382000D01*
X152019000Y-135382000D02*
X145288000Y-142113000D01*
X145288000Y-142113000D02*
X98298000Y-142113000D01*
X98298000Y-142113000D02*
X96139000Y-139954000D01*
X96139000Y-139954000D02*
X96139000Y-107315000D01*
X96139000Y-107315000D02*
X96806000Y-106648000D01*
X96806000Y-78867000D02*
X96806000Y-64352600D01*
X96806000Y-64352600D02*
X97688000Y-63470600D01*
X117348000Y-113792000D02*
X117729000Y-113411000D01*
X117729000Y-113411000D02*
X149606000Y-113411000D01*
X149606000Y-113411000D02*
X156464000Y-120269000D01*
%TO.N,/MISO*%
X124333000Y-109474000D02*
X131191000Y-109474000D01*
X131191000Y-109474000D02*
X134112000Y-106553000D01*
X134112000Y-106553000D02*
X141605000Y-106553000D01*
X141605000Y-106553000D02*
X143637000Y-108585000D01*
X143637000Y-108585000D02*
X152908000Y-108585000D01*
X152908000Y-108585000D02*
X162560000Y-98933000D01*
X162560000Y-98933000D02*
X169545000Y-98933000D01*
X164338000Y-79756000D02*
X161544000Y-76962000D01*
X169037000Y-81661000D02*
X167132000Y-79756000D01*
X167132000Y-79756000D02*
X164338000Y-79756000D01*
X161717000Y-63327000D02*
X161290000Y-63754000D01*
X163977000Y-63327000D02*
X161717000Y-63327000D01*
%TO.N,/Status Block/RCLK*%
X165608000Y-110236000D02*
X167767000Y-112395000D01*
%TO.N,/Scanner/RST*%
X142621000Y-117094000D02*
X142621000Y-118110000D01*
X154774000Y-139104000D02*
X153924000Y-139954000D01*
X142621000Y-118110000D02*
X154774000Y-130263000D01*
X154774000Y-130263000D02*
X154774000Y-139104000D01*
%TO.N,/MISO*%
X123444000Y-123190000D02*
X123444000Y-116205000D01*
X121031000Y-125603000D02*
X123444000Y-123190000D01*
X106188000Y-122810000D02*
X106188000Y-123060000D01*
X106188000Y-123060000D02*
X108731000Y-125603000D01*
X108731000Y-125603000D02*
X121031000Y-125603000D01*
%TO.N,/E-Paper/~{RST}*%
X137287000Y-104394000D02*
X140462000Y-101219000D01*
X140462000Y-101219000D02*
X140462000Y-97155000D01*
%TO.N,/E-Paper/DC*%
X126492000Y-123571000D02*
X125095000Y-124968000D01*
X126492000Y-116586000D02*
X126492000Y-123571000D01*
X137922000Y-97155000D02*
X137922000Y-102108000D01*
X137922000Y-102108000D02*
X136271000Y-103759000D01*
X136271000Y-103759000D02*
X126492000Y-103759000D01*
%TO.N,/3V3*%
X153162000Y-89535000D02*
X153162000Y-92075000D01*
X153162000Y-92075000D02*
X148082000Y-97155000D01*
X153162000Y-135382000D02*
X153162000Y-138176000D01*
X153162000Y-138176000D02*
X151384000Y-139954000D01*
X145415000Y-134747000D02*
X135095000Y-134747000D01*
X145415000Y-130961651D02*
X145415000Y-134747000D01*
D47*
X103988000Y-63470600D02*
X97688000Y-63470600D01*
D46*
%TO.N,/5V*%
X170053000Y-62357000D02*
X170053000Y-65278000D01*
X170053000Y-65278000D02*
X168004000Y-67327000D01*
X168004000Y-67327000D02*
X163977000Y-67327000D01*
%TO.N,/3V3*%
X114300000Y-108966000D02*
X110998000Y-105664000D01*
X98679000Y-98254599D02*
X98679000Y-85217000D01*
X98679000Y-85217000D02*
X101854000Y-82042000D01*
X101854000Y-82042000D02*
X101854000Y-65405000D01*
X101854000Y-65405000D02*
X103788400Y-63470600D01*
X103788400Y-63470600D02*
X103988000Y-63470600D01*
X98435000Y-109601000D02*
X98435000Y-117485000D01*
X98435000Y-117485000D02*
X99695000Y-118745000D01*
X104188000Y-136573000D02*
X104188000Y-138810000D01*
X104178500Y-136563500D02*
X104188000Y-136573000D01*
%TO.N,GND*%
X118491000Y-122809000D02*
X114189000Y-122809000D01*
X114189000Y-122809000D02*
X114188000Y-122810000D01*
%TO.N,/E-Paper/~{CS}*%
X138430000Y-115824000D02*
X138430000Y-123412000D01*
X138430000Y-123412000D02*
X127095000Y-134747000D01*
%TO.N,Net-(U3-GPIO4)*%
X173863000Y-77089000D02*
X173863000Y-89408000D01*
X173863000Y-89408000D02*
X168021000Y-95250000D01*
X168021000Y-95250000D02*
X160147000Y-95250000D01*
X160147000Y-95250000D02*
X158242000Y-97155000D01*
%TO.N,Net-(U3-GPIO5)*%
X176784000Y-57327000D02*
X179177000Y-57327000D01*
%TO.N,Net-(U3-GPIO4)*%
X176784000Y-59327000D02*
X179177000Y-59327000D01*
%TO.N,Net-(U3-GPIO5)*%
X155702000Y-97155000D02*
X158750000Y-94107000D01*
X158750000Y-94107000D02*
X166624000Y-94107000D01*
X166624000Y-94107000D02*
X170942000Y-89789000D01*
X170942000Y-89789000D02*
X170942000Y-74930000D01*
%TO.N,/LoRa/DIO0*%
X148082000Y-85799000D02*
X148082000Y-84201000D01*
X130302000Y-115570000D02*
X130302000Y-122555000D01*
%TO.N,/MOSI*%
X104188000Y-122810000D02*
X104188000Y-121745000D01*
X104188000Y-121745000D02*
X113792000Y-112141000D01*
X113792000Y-112141000D02*
X161798000Y-112141000D01*
X161798000Y-112141000D02*
X164084000Y-114427000D01*
%TO.N,/LoRa/DIO0*%
X108188000Y-138810000D02*
X108188000Y-138410000D01*
X108188000Y-138410000D02*
X111597000Y-135001000D01*
X111597000Y-135001000D02*
X117856000Y-135001000D01*
X117856000Y-135001000D02*
X130302000Y-122555000D01*
%TO.N,/LoRa/~{RESET}*%
X106188000Y-135128000D02*
X106188000Y-138810000D01*
%TO.N,/SCLK*%
X110871000Y-118618000D02*
X108188000Y-121301000D01*
X108188000Y-121301000D02*
X108188000Y-122810000D01*
X165481000Y-107569000D02*
X159893000Y-107569000D01*
%TO.N,/BID Register/Q7*%
X115570000Y-97155000D02*
X127762000Y-97155000D01*
%TO.N,/LoRa/~{NSS}*%
X102188000Y-122560000D02*
X106045000Y-118703000D01*
X106045000Y-118703000D02*
X106045000Y-116967000D01*
X102188000Y-122810000D02*
X102188000Y-122560000D01*
%TO.N,/BID Register/CP*%
X143002000Y-86106000D02*
X117808500Y-86106000D01*
X117808500Y-86106000D02*
X113881500Y-90033000D01*
X143002000Y-86106000D02*
X145542000Y-88646000D01*
X145542000Y-88646000D02*
X145542000Y-89535000D01*
%TO.N,/BID Register/~{PL}*%
X122428000Y-93726000D02*
X138811000Y-93726000D01*
X138811000Y-93726000D02*
X143002000Y-89535000D01*
X113881500Y-92573000D02*
X115034500Y-93726000D01*
X115034500Y-93726000D02*
X122428000Y-93726000D01*
%TO.N,/BID Register/~{CE}*%
X117856000Y-91440000D02*
X138557000Y-91440000D01*
X138557000Y-91440000D02*
X140462000Y-89535000D01*
X105941500Y-90033000D02*
X107348500Y-91440000D01*
X107348500Y-91440000D02*
X117856000Y-91440000D01*
%TO.N,/SCLK*%
X166257000Y-61327000D02*
X166370000Y-61214000D01*
X163977000Y-61327000D02*
X166257000Y-61327000D01*
%TO.N,/MOSI*%
X166321000Y-65327000D02*
X166370000Y-65278000D01*
X163977000Y-65327000D02*
X166321000Y-65327000D01*
%TO.N,/3V3*%
X107950000Y-95758000D02*
X105941500Y-93749500D01*
X105941500Y-93749500D02*
X105941500Y-92573000D01*
X144907000Y-100711000D02*
X148082000Y-97536000D01*
X148082000Y-97536000D02*
X148082000Y-97155000D01*
%TO.N,GND*%
X175260000Y-101219000D02*
X175260000Y-104328000D01*
X175260000Y-104328000D02*
X175707000Y-104775000D01*
%TO.N,/Status Block/BUZZ*%
X185928000Y-68453000D02*
X183134000Y-65659000D01*
X183134000Y-65659000D02*
X182092000Y-65659000D01*
X181229000Y-127254000D02*
X183515000Y-127254000D01*
X183515000Y-127254000D02*
X184150000Y-126619000D01*
%TO.N,Net-(BZ1-+)*%
X182179000Y-129129000D02*
X182179000Y-132639000D01*
X182179000Y-132639000D02*
X184541000Y-135001000D01*
%TO.N,Net-(Q1-B)*%
X179578000Y-137128000D02*
X179578000Y-129830000D01*
X179578000Y-129830000D02*
X180279000Y-129129000D01*
%TO.N,Net-(SW6-B)*%
X177038000Y-132842000D02*
X177038000Y-137128000D01*
%TO.N,Net-(D7-A)*%
X175707000Y-107315000D02*
X176657000Y-107315000D01*
X176657000Y-107315000D02*
X181991000Y-101981000D01*
X181991000Y-101981000D02*
X181991000Y-89916000D01*
X181991000Y-89916000D02*
X185547000Y-86360000D01*
X185547000Y-86360000D02*
X189611000Y-86360000D01*
X189611000Y-86360000D02*
X191770000Y-84201000D01*
X191770000Y-84201000D02*
X191770000Y-82169000D01*
%TO.N,Net-(D6-A)*%
X175707000Y-109855000D02*
X183134000Y-102428000D01*
X183134000Y-102428000D02*
X183134000Y-96393000D01*
X183134000Y-96393000D02*
X187452000Y-92075000D01*
X187452000Y-92075000D02*
X190119000Y-92075000D01*
X190119000Y-92075000D02*
X191770000Y-90424000D01*
X191770000Y-90424000D02*
X191770000Y-88878833D01*
%TO.N,Net-(D5-A)*%
X175707000Y-112395000D02*
X178435000Y-112395000D01*
X184277000Y-106553000D02*
X184277000Y-101092000D01*
X178435000Y-112395000D02*
X184277000Y-106553000D01*
X184277000Y-101092000D02*
X186436000Y-98933000D01*
X191770000Y-97409000D02*
X191770000Y-95588666D01*
X186436000Y-98933000D02*
X190246000Y-98933000D01*
X190246000Y-98933000D02*
X191770000Y-97409000D01*
%TO.N,Net-(D4-A)*%
X175707000Y-114935000D02*
X176977000Y-113665000D01*
X176977000Y-113665000D02*
X178943000Y-113665000D01*
X178943000Y-113665000D02*
X185674000Y-106934000D01*
X185674000Y-106934000D02*
X188722000Y-106934000D01*
X188722000Y-106934000D02*
X191770000Y-103886000D01*
X191770000Y-103886000D02*
X191770000Y-102298499D01*
%TO.N,Net-(D3-A)*%
X175707000Y-117475000D02*
X180721000Y-117475000D01*
X180721000Y-117475000D02*
X184658000Y-113538000D01*
X184658000Y-113538000D02*
X189103000Y-113538000D01*
X189103000Y-113538000D02*
X191770000Y-110871000D01*
X191770000Y-110871000D02*
X191770000Y-109008332D01*
%TO.N,Net-(D2-A)*%
X175707000Y-120015000D02*
X188849000Y-120015000D01*
X188849000Y-120015000D02*
X191770000Y-117094000D01*
X191770000Y-117094000D02*
X191770000Y-115718165D01*
%TO.N,Net-(D7-K)*%
X189230000Y-82169000D02*
X186055000Y-82169000D01*
%TO.N,Net-(D6-K)*%
X189230000Y-88878833D02*
X186076167Y-88878833D01*
X186076167Y-88878833D02*
X186055000Y-88900000D01*
%TO.N,Net-(D5-K)*%
X189230000Y-95588666D02*
X186097334Y-95588666D01*
X186097334Y-95588666D02*
X186055000Y-95631000D01*
%TO.N,Net-(D4-K)*%
X189230000Y-102298499D02*
X186118499Y-102298499D01*
X186118499Y-102298499D02*
X186055000Y-102235000D01*
%TO.N,Net-(D3-K)*%
X189230000Y-109008332D02*
X186097332Y-109008332D01*
X186097332Y-109008332D02*
X186055000Y-108966000D01*
%TO.N,Net-(D2-K)*%
X189230000Y-115718165D02*
X186076165Y-115718165D01*
X186076165Y-115718165D02*
X186055000Y-115697000D01*
%TO.N,Net-(D1-K)*%
X189230000Y-122428000D02*
X186055000Y-122428000D01*
%TO.N,Net-(D1-A)*%
X175707000Y-122555000D02*
X177739000Y-124587000D01*
X177739000Y-124587000D02*
X189611000Y-124587000D01*
X189611000Y-124587000D02*
X191770000Y-122428000D01*
%TO.N,/3V3*%
X163195000Y-120225600D02*
X156507400Y-120225600D01*
X156507400Y-120225600D02*
X156464000Y-120269000D01*
X163195000Y-122555000D02*
X163195000Y-120225600D01*
X167767000Y-122555000D02*
X163195000Y-122555000D01*
%TO.N,Net-(U6-QA)*%
X167767000Y-120015000D02*
X169418000Y-121666000D01*
X169418000Y-121666000D02*
X169418000Y-132842000D01*
%TO.N,/5V*%
X152654000Y-59107000D02*
X152654000Y-63255000D01*
X152654000Y-63255000D02*
X156702000Y-67303000D01*
%TO.N,Net-(U3-~{RST})*%
X152615000Y-53333000D02*
X152615000Y-55968000D01*
X152615000Y-55968000D02*
X152654000Y-56007000D01*
%TO.N,/Wi-Fi and MCU/INTA*%
X148082000Y-87249000D02*
X148082000Y-89535000D01*
%TO.N,/3V3*%
X101308500Y-92573000D02*
X105941500Y-92573000D01*
X101308500Y-90033000D02*
X101308500Y-92573000D01*
D47*
X103988000Y-63470600D02*
X104097300Y-63470600D01*
D46*
X104097300Y-63470600D02*
X105791000Y-65164300D01*
X105791000Y-65164300D02*
X105791000Y-67437000D01*
X105791000Y-67437000D02*
X103505000Y-69723000D01*
X103505000Y-69723000D02*
X103505000Y-87836500D01*
X103505000Y-87836500D02*
X101308500Y-90033000D01*
%TO.N,Net-(U5-D0)*%
X135255000Y-74676000D02*
X129032000Y-68453000D01*
X129032000Y-68453000D02*
X110744000Y-68453000D01*
X110744000Y-68453000D02*
X107315000Y-71882000D01*
X107315000Y-71882000D02*
X107315000Y-78499500D01*
X107315000Y-78499500D02*
X105941500Y-79873000D01*
%TO.N,Net-(U5-D1)*%
X132715000Y-74676000D02*
X127254000Y-69215000D01*
X111252000Y-69215000D02*
X107950000Y-72517000D01*
X127254000Y-69215000D02*
X111252000Y-69215000D01*
X107950000Y-72517000D02*
X107950000Y-80404500D01*
X107950000Y-80404500D02*
X105941500Y-82413000D01*
%TO.N,Net-(U5-D2)*%
X130175000Y-74676000D02*
X125476000Y-69977000D01*
X125476000Y-69977000D02*
X111506000Y-69977000D01*
X107198000Y-84953000D02*
X105941500Y-84953000D01*
X111506000Y-69977000D02*
X108585000Y-72898000D01*
X108585000Y-72898000D02*
X108585000Y-83566000D01*
X108585000Y-83566000D02*
X107198000Y-84953000D01*
%TO.N,Net-(U5-D3)*%
X127635000Y-74676000D02*
X123698000Y-70739000D01*
X123698000Y-70739000D02*
X111887000Y-70739000D01*
X111887000Y-70739000D02*
X109347000Y-73279000D01*
X109347000Y-73279000D02*
X109347000Y-85979000D01*
X109347000Y-85979000D02*
X107833000Y-87493000D01*
X107833000Y-87493000D02*
X105941500Y-87493000D01*
%TO.N,Net-(U5-D4)*%
X125095000Y-74676000D02*
X121920000Y-71501000D01*
X121920000Y-71501000D02*
X112141000Y-71501000D01*
X112141000Y-71501000D02*
X110236000Y-73406000D01*
X110236000Y-73406000D02*
X110236000Y-83847500D01*
X110236000Y-83847500D02*
X113881500Y-87493000D01*
%TO.N,Net-(U5-D5)*%
X122555000Y-74676000D02*
X120015000Y-72136000D01*
X120015000Y-72136000D02*
X112776000Y-72136000D01*
X112776000Y-72136000D02*
X110871000Y-74041000D01*
X110871000Y-74041000D02*
X110871000Y-81942500D01*
X110871000Y-81942500D02*
X113881500Y-84953000D01*
%TO.N,Net-(U5-D6)*%
X120015000Y-74676000D02*
X118237000Y-72898000D01*
X118237000Y-72898000D02*
X113030000Y-72898000D01*
X113030000Y-72898000D02*
X111760000Y-74168000D01*
X111760000Y-74168000D02*
X111760000Y-80291500D01*
X111760000Y-80291500D02*
X113881500Y-82413000D01*
%TO.N,Net-(U5-D7)*%
X117475000Y-74676000D02*
X116459000Y-73660000D01*
X113411000Y-73660000D02*
X112522000Y-74549000D01*
X116459000Y-73660000D02*
X113411000Y-73660000D01*
X112522000Y-74549000D02*
X112522000Y-79248000D01*
X112522000Y-79248000D02*
X113147000Y-79873000D01*
X113147000Y-79873000D02*
X113881500Y-79873000D01*
D47*
%TO.N,/3V3*%
X114046000Y-63754000D02*
X114173000Y-63754000D01*
X114173000Y-63754000D02*
X117475000Y-67056000D01*
X107950000Y-63742600D02*
X114034600Y-63742600D01*
X114034600Y-63742600D02*
X114046000Y-63754000D01*
X117475000Y-67056000D02*
X135255000Y-67056000D01*
D46*
X148082000Y-97155000D02*
X148082000Y-105791000D01*
%TO.N,/Wi-Fi and MCU/GPIO15*%
X176784000Y-65278000D02*
X179128000Y-65278000D01*
X179128000Y-65278000D02*
X179177000Y-65327000D01*
%TO.N,/Wi-Fi and MCU/GPIO0*%
X176784000Y-61341000D02*
X179163000Y-61341000D01*
X179163000Y-61341000D02*
X179177000Y-61327000D01*
%TO.N,GND*%
X183134000Y-69850000D02*
X181700000Y-69850000D01*
X181700000Y-69850000D02*
X179177000Y-67327000D01*
%TO.N,/5V*%
X162433000Y-72009000D02*
X163977000Y-70465000D01*
X163977000Y-70465000D02*
X163977000Y-67327000D01*
X156666000Y-57277000D02*
X156666000Y-67267000D01*
X156666000Y-67267000D02*
X156702000Y-67303000D01*
%TO.N,/Status Block/BUZZ*%
X179177000Y-63327000D02*
X179760000Y-63327000D01*
X179760000Y-63327000D02*
X182092000Y-65659000D01*
%TO.N,/Wi-Fi and MCU/GPIO0*%
X182678000Y-58075000D02*
X189178000Y-58075000D01*
X182678000Y-58075000D02*
X182678000Y-59511000D01*
X182678000Y-59511000D02*
X180862000Y-61327000D01*
X180862000Y-61327000D02*
X179177000Y-61327000D01*
%TO.N,Net-(J1-TX)*%
X192786000Y-51562000D02*
X186436000Y-51562000D01*
X186436000Y-51562000D02*
X182671000Y-55327000D01*
X182671000Y-55327000D02*
X179177000Y-55327000D01*
%TO.N,Net-(J1-RX)*%
X186055000Y-49022000D02*
X181737000Y-53340000D01*
X192786000Y-49022000D02*
X186055000Y-49022000D01*
X181737000Y-53340000D02*
X181724000Y-53327000D01*
X181724000Y-53327000D02*
X179177000Y-53327000D01*
%TO.N,Net-(U3-EN)*%
X163977000Y-57327000D02*
X159816000Y-57327000D01*
X159816000Y-57327000D02*
X159766000Y-57277000D01*
D47*
%TO.N,/5V*%
X144962000Y-78942000D02*
X144962000Y-72442000D01*
%TO.N,/VRAW*%
X140462000Y-72442000D02*
X140462000Y-78942000D01*
%TO.N,/5V*%
X144962000Y-72442000D02*
X144962000Y-68017000D01*
X144962000Y-68017000D02*
X145542000Y-67437000D01*
%TO.N,/VRAW*%
X140462000Y-72442000D02*
X140462000Y-67437000D01*
X107664000Y-49276000D02*
X107664000Y-49879000D01*
X107664000Y-49879000D02*
X110363000Y-52578000D01*
X110363000Y-52578000D02*
X110363000Y-58757600D01*
X110363000Y-58757600D02*
X107950000Y-61170600D01*
D46*
%TO.N,Net-(U5-D0)*%
X135255000Y-77216000D02*
X135255000Y-74676000D01*
%TO.N,Net-(U5-D1)*%
X132715000Y-74676000D02*
X132715000Y-77216000D01*
%TO.N,Net-(U5-D2)*%
X130175000Y-77190000D02*
X130175000Y-74676000D01*
%TO.N,Net-(U5-D3)*%
X127635000Y-74676000D02*
X127635000Y-77190000D01*
%TO.N,Net-(U5-D4)*%
X125095000Y-77190000D02*
X125095000Y-74676000D01*
%TO.N,Net-(U5-D5)*%
X122555000Y-74676000D02*
X122555000Y-77216000D01*
%TO.N,Net-(U5-D6)*%
X120015000Y-77216000D02*
X120015000Y-74676000D01*
%TO.N,Net-(U5-D7)*%
X117475000Y-74676000D02*
X117475000Y-77154000D01*
X117475000Y-77154000D02*
X117511000Y-77190000D01*
D47*
%TO.N,/5V*%
X156702000Y-67303000D02*
X163953000Y-67303000D01*
X163953000Y-67303000D02*
X163977000Y-67327000D01*
D46*
%TO.N,Net-(U3-~{RST})*%
X163977000Y-53327000D02*
X152621000Y-53327000D01*
X152621000Y-53327000D02*
X152615000Y-53333000D01*
D47*
%TO.N,/3V3*%
X107950000Y-63742600D02*
X104260000Y-63742600D01*
X104260000Y-63742600D02*
X103988000Y-63470600D01*
%TO.N,Net-(U3-~{RST})*%
X159121000Y-53327000D02*
X159115000Y-53333000D01*
%TO.N,/5V*%
X150368000Y-69596000D02*
X154409000Y-69596000D01*
X154409000Y-69596000D02*
X156702000Y-67303000D01*
X145542000Y-67437000D02*
X147701000Y-69596000D01*
X147701000Y-69596000D02*
X150368000Y-69596000D01*
X145542000Y-67437000D02*
X145542000Y-63459000D01*
%TO.N,/VRAW*%
X140462000Y-67437000D02*
X140462000Y-63459000D01*
X107664000Y-49276000D02*
X112395000Y-49276000D01*
X112395000Y-49276000D02*
X127762000Y-64643000D01*
X127762000Y-64643000D02*
X137668000Y-64643000D01*
X137668000Y-64643000D02*
X140462000Y-67437000D01*
X107950000Y-61170600D02*
X103988000Y-61170600D01*
X140462000Y-63459000D02*
X140421000Y-63459000D01*
%TO.N,Net-(J2-Pin_1)*%
X99822000Y-51816000D02*
X107664000Y-51816000D01*
%TD*%
M02*
