M48
; DRILL file {KiCad 7.0.10} date Wed Feb 21 03:28:01 2024
; FORMAT={-:-/ absolute / inch / decimal}
; #@! TF.CreationDate,2024-02-21T03:28:01-08:00
; #@! TF.GenerationSoftware,Kicad,Pcbnew,7.0.10
; #@! TF.FileFunction,MixedPlating,1,2
FMAT,2
INCH
; #@! TA.AperFunction,Plated,PTH,ViaDrill
T1C0.0157
; #@! TA.AperFunction,Plated,PTH,ComponentDrill
T2C0.0236
; #@! TA.AperFunction,Plated,PTH,ComponentDrill
T3C0.0307
; #@! TA.AperFunction,Plated,PTH,ComponentDrill
T4C0.0315
; #@! TA.AperFunction,Plated,PTH,ComponentDrill
T5C0.0354
; #@! TA.AperFunction,Plated,PTH,ComponentDrill
T6C0.0394
; #@! TA.AperFunction,Plated,PTH,ComponentDrill
T7C0.0433
; #@! TA.AperFunction,Plated,PTH,ComponentDrill
T8C0.0598
; #@! TA.AperFunction,NonPlated,NPTH,ComponentDrill
T9C0.0866
; #@! TA.AperFunction,NonPlated,NPTH,ComponentDrill
T10C0.1378
%
G90
G05
T1
X3.95Y-5.35
X3.965Y-4.955
X4.055Y-2.685
X4.1015Y-5.3765
X4.155Y-3.81
X4.1806Y-5.32
X4.5Y-4.29
X4.895Y-4.31
X4.925Y-4.92
X4.98Y-4.59
X5.13Y-4.05
X5.21Y-5.19
X5.365Y-4.51
X5.405Y-4.11
X5.42Y-3.195
X5.45Y-4.96
X5.485Y-5.07
X5.525Y-4.67
X5.615Y-4.61
X5.83Y-3.315
X6.35Y-2.51
X6.39Y-4.04
X6.515Y-3.935
X6.515Y-4.235
X6.55Y-2.41
X6.55Y-2.57
X6.61Y-5.315
X6.63Y-4.02
X6.65Y-5.42
X6.655Y-3.215
X6.675Y-3.895
X6.695Y-2.455
X6.96Y-2.257
X6.96Y-2.3357
X6.96Y-2.415
X6.96Y-2.57
X7.25Y-4.985
X7.32Y-2.695
T2
X3.8113Y-3.105
X3.8117Y-4.07
X3.8463Y-4.675
X3.89Y-3.105
X3.8904Y-4.07
X3.925Y-4.675
X3.9885Y-3.4659
X3.9885Y-3.5446
X4.185Y-3.9463
X4.185Y-4.025
X4.25Y-2.3296
X4.25Y-2.4083
X4.25Y-2.5096
X4.25Y-2.5883
X4.62Y-4.48
X4.62Y-4.5587
X5.53Y-2.655
X5.6087Y-2.655
X5.725Y-5.305
X5.725Y-5.3837
X5.73Y-2.655
X5.8087Y-2.655
X5.83Y-4.165
X5.9087Y-4.165
X6.425Y-4.6546
X6.425Y-4.7333
T3
X4.1709Y-2.9446
X4.1709Y-3.0446
X4.1709Y-3.1446
X4.1709Y-3.2446
X4.1709Y-3.3446
X4.1709Y-3.4446
X4.1709Y-3.5446
X4.1709Y-3.6446
X4.4835Y-2.9446
X4.4835Y-3.0446
X4.4835Y-3.1446
X4.4835Y-3.2446
X4.4835Y-3.3446
X4.4835Y-3.4446
X4.4835Y-3.5446
X4.4835Y-3.6446
X6.605Y-4.125
X6.605Y-4.225
X6.605Y-4.325
X6.605Y-4.425
X6.605Y-4.525
X6.605Y-4.625
X6.605Y-4.725
X6.605Y-4.825
X6.9176Y-4.125
X6.9176Y-4.225
X6.9176Y-4.325
X6.9176Y-4.425
X6.9176Y-4.525
X6.9176Y-4.625
X6.9176Y-4.725
X6.9176Y-4.825
T4
X3.8754Y-4.315
X4.025Y-4.315
X4.625Y-2.64
X4.625Y-2.94
X4.725Y-2.64
X4.725Y-2.94
X4.7675Y-5.305
X4.825Y-2.64
X4.825Y-2.94
X4.8463Y-5.305
X4.925Y-2.64
X4.925Y-2.94
X4.925Y-5.305
X5.0037Y-5.305
X5.025Y-2.64
X5.025Y-2.94
X5.03Y-3.525
X5.03Y-3.825
X5.0825Y-5.305
X5.125Y-2.64
X5.125Y-2.94
X5.13Y-3.525
X5.13Y-3.825
X5.1612Y-5.305
X5.225Y-2.64
X5.225Y-2.94
X5.23Y-3.525
X5.23Y-3.825
X5.24Y-5.305
X5.3187Y-5.305
X5.325Y-2.64
X5.325Y-2.94
X5.33Y-3.525
X5.33Y-3.825
X5.43Y-3.525
X5.43Y-3.825
X5.53Y-3.525
X5.53Y-3.825
X5.63Y-3.525
X5.63Y-3.825
X5.725Y-5.0064
X5.725Y-5.156
X5.73Y-3.525
X5.73Y-3.825
X5.83Y-3.525
X5.83Y-3.825
X5.93Y-3.525
X5.93Y-3.825
X6.03Y-3.525
X6.03Y-3.825
X6.03Y-5.1804
X6.03Y-5.33
X6.13Y-3.525
X6.13Y-3.825
X6.16Y-4.5854
X6.16Y-4.735
X6.1694Y-2.6497
X6.1694Y-2.7993
X6.23Y-3.525
X6.23Y-3.825
X6.33Y-3.525
X6.33Y-3.825
X6.67Y-5.23
X6.97Y-5.23
X7.025Y-3.235
X7.025Y-3.5
X7.025Y-3.765
X7.025Y-4.025
X7.025Y-4.29
X7.025Y-4.555
X7.025Y-4.82
X7.325Y-3.235
X7.325Y-3.5
X7.325Y-3.765
X7.325Y-4.025
X7.325Y-4.29
X7.325Y-4.555
X7.325Y-4.82
T5
X4.2387Y-1.94
X4.2387Y-2.04
X4.2387Y-2.14
X6.87Y-5.3987
X6.97Y-5.3987
X7.07Y-5.3987
X7.45Y-3.235
X7.45Y-3.4992
X7.45Y-3.7633
X7.45Y-4.0275
X7.45Y-4.2917
X7.45Y-4.5558
X7.45Y-4.82
X7.55Y-3.235
X7.55Y-3.4992
X7.55Y-3.7633
X7.55Y-4.0275
X7.55Y-4.2917
X7.55Y-4.5558
X7.55Y-4.82
T6
X4.025Y-4.575
X4.175Y-4.605
X4.25Y-3.77
X4.365Y-4.675
X4.39Y-4.51
X4.49Y-2.51
X4.55Y-3.825
X4.64Y-3.6
X4.66Y-5.165
X4.665Y-4.835
X4.79Y-2.305
X4.82Y-3.69
X4.86Y-4.575
X4.98Y-4.085
X5.105Y-5.085
X5.13Y-4.555
X5.285Y-4.555
X5.32Y-2.315
X5.365Y-4.285
X5.43Y-5.175
X5.45Y-4.555
X5.605Y-4.855
X5.63Y-3.39
X5.705Y-3.965
X5.715Y-4.56
X5.78Y-4.815
X5.92Y-2.74
X5.96Y-5.51
X6.06Y-4.34
X6.06Y-5.51
X6.13Y-4.915
X6.16Y-5.51
X6.165Y-3.955
X6.26Y-5.51
X6.275Y-5.065
X6.29Y-5.355
X6.295Y-4.235
X6.36Y-3.025
X6.36Y-5.51
X6.395Y-2.835
X6.46Y-4.505
X6.46Y-5.51
X6.56Y-5.51
X6.595Y-5.08
X6.66Y-5.51
X6.73Y-2.95
X6.765Y-4.965
X6.84Y-5.565
X6.845Y-3.035
X6.9Y-3.985
X6.945Y-5.01
X7.21Y-2.75
X7.2654Y-5.315
X7.5646Y-5.315
X7.59Y-1.83
X7.59Y-1.93
X7.59Y-2.03
X7.59Y-2.13
X7.59Y-2.23
X7.59Y-2.33
X7.595Y-5.04
T7
X5.53Y-2.4984
X5.53Y-2.852
X5.53Y-3.108
X5.63Y-2.4984
X5.7072Y-2.852
X5.7072Y-3.108
X5.73Y-2.4984
X6.0085Y-1.9226
X6.0085Y-2.0997
X6.2644Y-1.9226
X6.2644Y-2.0997
X7.192Y-2.2864
X7.192Y-2.4636
X7.448Y-2.2864
X7.448Y-2.4636
T8
X3.93Y-1.84
X3.93Y-2.04
T9
X5.075Y-2.315
X6.07Y-3.205
X6.445Y-5.16
X7.33Y-1.815
T10
X5.63Y-1.8425
M30
